<?xml version="1.0" encoding="utf-8"?>
<!-- Generator: Adobe Illustrator 25.0.0, SVG Export Plug-In . SVG Version: 6.00 Build 0)  -->
<svg version="1.1" id="katman_1" xmlns="http://www.w3.org/2000/svg" xmlns:xlink="http://www.w3.org/1999/xlink" x="0px" y="0px"
	 width="2000px" height="1340px" viewBox="0 0 2000 1340" style="enable-background:new 0 0 2000 1340;" xml:space="preserve">
<style type="text/css">
	.st0{fill:#F47676;}
	.st1{fill:#FFFFFF;}
	.st2{fill:#3C3C3B;}
</style>
<g id="katman_9">
	<path class="st0" d="M1237.7,520.1c-53.9-39.3-128.6-32.4-186.7,22.4c-58-54.8-132.8-61.7-186.7-22.4
		c-57.9,42.2-59.9,121.9-46.5,169.3c3,10.7,12.7,40.6,83.4,109.6c35.7,34.9,91.1,75.1,149.8,114.7c58.7-39.6,114-79.8,149.8-114.7
		c70.7-69,80.4-98.9,83.4-109.6C1297.6,642,1295.6,562.3,1237.7,520.1z"/>
	<g>
		<path class="st0" d="M637.4,135.2c1.9-7.8,2-16.2,0.5-24.2l-2.7-13.8c-0.5-2.3-3.5-2.7-4.6-0.7l-6.7,12.4c-1.2,2.1-3.3,5.1-7,7.1
			c-0.9,0.5-1.9,0.9-2.8,1.2c-6.1-3.7-13.1-6.1-20.7-6.2c-0.4,0-0.7,0-1.1,0c-18.8,0-32.9,6.7-40.7,18.8
			c-7.8-12.1-21.9-18.8-40.7-18.8c-0.4,0-0.7,0-1.1,0c-7.6,0.1-14.6,2.5-20.7,6.2c-0.9-0.3-1.8-0.7-2.8-1.2c-3.7-2-5.9-5-7-7.1
			l-6.7-12.4c-1.1-2-4.2-1.6-4.6,0.7l-2.7,13.8c-1.6,8-1.4,16.4,0.5,24.2c0.6,2.3,1.2,4.6,2.1,6.8c-6.2,15-3,28.8-1.6,34.9
			c4.3,18.7,15.3,30.4,25,40.7c17.6,18.7,35.6,26.1,53.6,44l6.8,6.7l6.7-6.7c18-17.8,36-25.2,53.6-44c9.7-10.3,20.6-22,25-40.7
			c1.4-6.1,4.6-19.9-1.5-34.9C636.2,139.8,636.9,137.5,637.4,135.2z"/>
		<g>
			<path class="st1" d="M630,115.9L630,115.9c-0.1-0.7-1.1-0.9-1.5-0.2l0,0c-1.3,2.5-3.8,5.9-8.2,8.2c-6.8,3.7-13.7,2-16.4,1.1
				c0,0-0.1,0-0.1,0c-4.3-2.1-8.8-3.2-13.3-3.2c-8.2-0.1-15.5,1.2-21.4,4c-7.1,3.2-12.2,8.4-15.3,15.3c-0.5,1.1-1.5,1.5-2.3,1.5
				s-1.8-0.4-2.3-1.5c-3.1-6.9-8.2-12.1-15.3-15.3c-6-2.7-13.2-4.1-21.4-4c-4.6,0.1-9.1,1.2-13.5,3.3c0,0,0,0,0,0
				c-2.8,0.9-9.6,2.4-16.3-1.2c-4.3-2.3-6.8-5.7-8.2-8.2l0,0c-0.3-0.7-1.3-0.5-1.5,0.2l0,0c-1.2,6-1,12.2,0.3,18
				c1,4.3,2.7,8.4,5,12.2c0.1,0.2,0.1,0.5,0,0.7c-5.5,12.7-2.7,24.7-1.5,30c3.7,16.1,13.4,26.4,22,35.5
				c10.8,11.5,20.9,18.6,30.7,25.4c7.5,5.2,14.5,10.1,21.1,16.6l0.2,0.2c0.3,0.3,0.8,0.3,1.1,0l0.2-0.2c6.6-6.5,13.6-11.4,21.1-16.6
				c9.7-6.8,19.8-13.8,30.7-25.4c8.6-9.1,18.3-19.5,22-35.5c1.2-5.3,4-17.3-1.4-30c-0.1-0.2-0.1-0.5,0.1-0.7c2.3-3.8,4-7.9,5.1-12.3
				C631.1,128,631.2,121.9,630,115.9z M475,133.5c-1-4.3-1.3-8.8-0.9-13.2c0.1-0.7,1-1,1.4-0.4c1.5,1.9,3.7,3.9,6.5,5.4
				c3.5,1.8,6.9,2.5,9.9,2.5c0.8,0,1.1,1,0.5,1.4c0,0,0,0-0.1,0c-5,3.8-9.2,8.8-12.2,14.2c-0.3,0.6-1.1,0.6-1.4,0
				C477.1,140.3,475.8,137,475,133.5z M480.1,145.8l-0.4,0.2c0.1-0.2,0.2-0.3,0.2-0.5C480.1,145.6,480.1,145.7,480.1,145.8z
				 M624.5,176.5c-3.6,15.7-13.2,25.8-21.6,34.8c-10.7,11.4-20.7,18.4-30.4,25.2c-7.2,5-14,9.8-20.4,15.9c-0.3,0.3-0.8,0.3-1.1,0
				c-6.4-6.1-13.2-10.9-20.4-15.9c-9.7-6.8-19.7-13.7-30.4-25.2c-8.4-9-18-19.1-21.6-34.8c-1.2-5.3-4.1-17.9,2.1-30.7
				c2.9-5.9,7.3-11.3,12.6-15.3c2-1.6,4.2-2.9,6.3-3.9c0,0,0,0,0,0c0.2-0.1,0.5-0.2,0.7-0.3c4-1.8,8.1-2.8,12.2-2.9c0.3,0,0.7,0,1,0
				c21.5,0,30.5,9.9,34.3,18.3c0.7,1.5,2.1,2.4,3.7,2.4c1.6,0,3-0.9,3.7-2.4c3.8-8.5,13-18.6,35.2-18.3c4.1,0.1,8.3,1,12.3,2.9
				c0.2,0.1,0.3,0.2,0.5,0.2c2.2,1.1,4.4,2.4,6.5,4c5.3,4,9.7,9.5,12.6,15.3C628.6,158.6,625.7,171.1,624.5,176.5z M628.2,133.5
				c-0.8,3.5-2.1,6.8-3.8,10c-0.3,0.6-1.1,0.5-1.4,0c-3-5.5-7.3-10.5-12.2-14.3c0,0,0,0-0.1,0c-0.6-0.5-0.3-1.4,0.5-1.4
				c3,0,6.5-0.6,10-2.5c2.9-1.5,5-3.5,6.5-5.4c0.5-0.6,1.3-0.3,1.4,0.4C629.5,124.7,629.2,129.2,628.2,133.5z"/>
			<path class="st1" d="M480.1,145.8l-0.4,0.2c0.1-0.2,0.2-0.3,0.2-0.5C480.1,145.6,480.1,145.7,480.1,145.8z"/>
			<path class="st1" d="M500.4,126.3c-0.2,0.1-0.4,0.2-0.7,0.3C499.9,126.4,500.1,126.3,500.4,126.3L500.4,126.3z"/>
		</g>
	</g>
	<path class="st0" d="M1531.7,110.2c-19.6-14.3-46.9-11.8-68,8.2c-21.1-20-48.4-22.5-68-8.2c-21.1,15.4-21.8,44.4-16.9,61.7
		c0.1,0.4,0.3,0.9,0.4,1.5c6.8,20.2,21.3,30.6,29.9,38.5c25,22.6,29.7,51.8,33.3,50.4c2.7-1.1-0.9-22.9-1.3-25.1
		c-0.7-4.1-1.8-9.7,1.4-14.1c0.2-0.3,2.9-3.9,4.8-3.2c4.9,1.6-2.7,28.5,4.8,31.9c2.1,1,4.6-0.1,4.8-0.2c4.2-1.8,3.2-7.5,7.7-10.4
		c1.8-1.2,5.4-2.6,7.5-1.2c4.7,3.3-3.4,19.1,1.6,21.8c1,0.5,2.3,0.7,3.4,0.3c7-2.9-2.2-27.1,7.7-34.3c1.9-1.4,5-2.4,7.1-1.3
		c5.3,2.7,1,16.6,3.9,17.7c3,1.2,7.6-15.6,22.5-32.2c11.7-13.1,23.7-19.8,29.9-38.5c0.2-0.6,0.3-1,0.4-1.5
		C1553.5,154.7,1552.8,125.6,1531.7,110.2z"/>
	<path class="st2" d="M319.2,409.6c3.8-13.3,10.9-37.6-4.5-46.5c-13.2-7.7-32.1,0.6-42,10c-9.5,9.2-18,19.6-25.5,30.7
		c-1.2-10.6-3.5-21-10.7-29.3c-10.3-11.9-27-13.3-40.7-6.6c-14.5,7.1-18.9,24.8-17.6,39.7c1.5,16.7,10.6,30.3,21.6,42.3
		c12.2,13.4,26.5,25.6,33.1,42.9c1.3,3.4,15.9-0.7,15.1-2.9c-0.3-0.9-0.7-1.8-1.1-2.7c2.6-0.4,5.7-1.1,7.1-2.9
		c10.6-13.3,24.9-22.6,37.7-33.6C305,439.4,314.4,426.5,319.2,409.6z M277.7,451.8c-11.3,9.7-23.8,18.2-33.9,29.1
		c-15.4-26.6-47.5-42.8-50.4-76.1c-0.8-9,0.3-18.4,4.7-26.4c1.5-2.7,5.1-8.8,8.4-9.5c3.3-0.8,8.5,3,10.9,4.9
		c16,12.4,14.4,34.6,16.4,52.6c0.3,3.1,13.8-0.1,14.9-2.3c9.7-18,21.5-35.1,35.8-49.8c3-3.1,8.5-9.5,13.2-8.5c4.5,1,7.8,5.5,9.4,9.5
		c3.4,8.6,1.1,18.4-0.7,27.1C302.3,422.5,293.3,438.4,277.7,451.8z"/>
	<path class="st2" d="M1253,330.3c-14.9-3.7-30.2,9.4-39.7,19.1c-7.9,8.1-15.2,16.7-21.9,25.8c-2.1-8.4-4.1-16.7-6.2-25.1
		c-2.2-9-4-18.3-8-26.7c-2.9-6.1-7.3-12.4-13.9-14.9c-7.3-2.7-15.4,0.2-21.7,3.9c-35.4,20.7-17,74,0,100.8
		c4.5,7.1,9.5,13.8,14.9,20.3c-3.6,0.4-7.2,0.7-10.8,1c-27.1,2.5-54.4,4.4-80.3,13.6c-25,8.9-49.7,24.2-63.3,47.6
		c-1.8,3.1,2.8,1.7,4.3,1.2c3.1-1.1,8-3.5,9.7-6.6c14.4-24.6,40.2-35.5,67.2-40.5c26.2-4.9,53-5.2,79.3-9.2
		c8.7,9.8,18,19.1,27.3,28.3c3.1,3.1,16.4-7,14.9-8.6c-7.5-7.5-15.3-15.3-22.8-23.5c0.7-0.2,1.4-0.3,2.1-0.5
		c25.4-6.6,50.9-19.7,68.3-39.8c8.5-9.8,15.2-21.8,17.1-34.7C1271,349.3,1266.8,333.7,1253,330.3z M1145,315.7
		c-0.3,0.2-0.7,0.4-1,0.6C1144.4,315.8,1144.8,315.5,1145,315.7z M1247.7,388.5c-5.5,10.2-13.7,18.8-23.3,25.3
		c-14.3,9.6-30.9,14.3-47.9,17.2c-22.1-25.2-40.4-54.1-39.7-88.5c0.1-4.6,0.5-9.2,1.7-13.7c0.3-1,3.1-8.7,5.1-11.8
		c1-0.1,2-0.1,3.1,0.1c2.3,0.3,4.5,1.3,6.3,2.6c3.1,2.1,5.4,5.3,7.3,8.5c5.1,8.6,7,18.5,9.4,28c3.2,12.7,6.3,25.5,9.5,38.2
		c0.8,3.2,13.5-5.4,14.4-7c7.9-12.9,16.8-25.1,27-36.2c4-4.3,9.1-12,15.5-12c6.5-0.1,12.1,4.7,15.2,10
		C1258.2,361.2,1253.8,377.1,1247.7,388.5z"/>
	<path class="st2" d="M916.2,327.3c-0.3-1.2-3.8-0.3-4.1-0.2c-27.1,5.5-41.5,30.6-53.2,53.1c-4.9,9.5-9.4,19.1-13.3,29
		c-2.1-15.1-5.1-30-9.9-44.5c-3.9-11.7-9.1-25.6-21.7-30.3c-10.9-4.1-23.1,1.6-31.7,8.3c-24.7,19.1-0.7,48.6,10.5,68.5
		c7.9,14,15.8,27.9,23.6,41.9c4.1,7.2,8.2,14.5,12.3,21.7c2.6,4.6,4.2,9.1,10.1,8.8c0.4,0,0.8-0.1,1.2-0.1c0.2,1.4,0.4,2.9,0.7,4.3
		c0.9,4.5,18.7-7.9,20-9.7c16.7-21.8,30.8-45.5,41.9-70.7C913.7,382.5,923.9,354.7,916.2,327.3z"/>
	<path class="st2" d="M612,352.8c-19.4-1.3-33.7,13.6-45,27.3c-7.7,9.4-14.8,19.3-21.1,29.7c-0.7-7.1-2.7-14.1-6.1-20.6
		c-7.5-14-21.5-24.9-37.7-26.1c-7-0.6-16.8,0.8-20.9,7.2c-4.2,6.6-3.5,16.6-2.7,24c1.9,17.1,9.7,33,18.9,47.3
		c12,18.7,26.5,35.7,36.5,55.7c0.3,0.5,0.9,0.9,1.6,1c-0.5,0.6-1,1.2-1.5,1.7c-1.5,1.7,4.9,1.4,5.3,1.4c2.6-0.2,6.5-0.8,8.3-2.9
		c28.7-32.3,58.5-66,72.8-107.6C624.5,379,632.1,354.1,612,352.8z M496.6,366.5c0.1,0.3-0.1,0.4-0.4,0.4
		C496.4,366.7,496.6,366.5,496.6,366.5z M494.3,369.4c0,0,0.5-0.7,1-1.3c1.1,0.2,2.4,0.3,3.3,0.6c1.8,0.5,3.6,1.2,5.3,2
		c-1.5,0.5-2.6,1.1-2.9,1.9l-8.2,23c-0.2-1.3-0.4-2.6-0.6-4C491.6,384.9,490.8,375.5,494.3,369.4z M497.8,413
		c-0.1-0.3-0.2-0.6-0.3-1c1.7-0.5,3.1-1.2,3.5-2.1l12-33.8c2.6,2.1,5.1,4.4,7.3,7c-5,15.3-9.9,30.5-14.9,45.8
		C502.4,423.8,499.9,418.5,497.8,413z M513.4,442.3c0.5-0.3,0.8-0.7,0.9-1.1c4.7-14.6,9.4-29.1,14.2-43.7c4.6,12,4.8,25.4,2.1,38
		c-0.4,1.4-0.7,2.8-1,4.1c-0.2,0.7-0.4,1.4-0.6,2.1c0,0.2,0,0.3,0,0.4c-1.1,5.3-1.8,10.7-2.1,16.1c-0.1,1.8,13.7,1,13.9-2.6
		c0.3-5.5,1-11,2.1-16.3c7.3-16.4,16.2-32.1,26.6-46.7c0.2-0.2,0.4-0.5,0.5-0.7c-5,13.4-10,26.8-15,40.2c-3.1,8.3-6.2,16.7-9.3,25
		c-2.4,6.4-6.5,13.8-4.7,20.8c0.8,3,11.6-0.2,13.1-1.4c0.4-0.3,0.7-0.6,1-0.9c-3.6,4.3-7.2,8.5-10.9,12.7
		C535.3,472.2,523.6,457.7,513.4,442.3z M559.6,470.3c0.4-0.7,0.8-1.4,1.2-2.2c0.4-0.9-2.5-1.3-5.7-1.2c1.1-4.6,3.4-9.1,5-13.2
		c3.1-8.3,6.2-16.7,9.3-25c6.1-16.3,12.2-32.6,18.3-49c0.5-1.2-3.5-1.6-7.3-1.2c2-2.5,4.1-4.9,6.3-7.3c3.6-4,14.1-16.8,20-12.6
		c1.9,1.4,3.1,3.3,3.9,5.4c-3.8,0.1-8.6,1-9.1,3.2c-6.1,26.3-14.4,52.1-24.8,77c-0.2,0.6,0.6,0.9,2,1.1c-1.2,1.7-2.4,3.4-3.7,5.1
		C570.1,457.3,564.9,463.9,559.6,470.3z"/>
	<g>
		<path class="st2" d="M1492.7,364.1c-7.8-3.5-16.4,2.5-21.2,8.3c-6.3,7.5-10.3,16.9-12.9,26.2c-3,10.5-5.1,21.3-6.3,32.2
			c-4.5-13.1-10.3-25.7-17.6-37.3c-8.9-14.1-26.2-28.5-43.3-17.9c-14.6,9-17.3,29-11.5,43.8c7.8,19.9,22.3,37.5,37.5,52.3
			c18.1,17.6,38.8,32.1,59.6,46.4c-0.3,0.6-0.6,1.3-0.9,1.9c-0.6,1.1-3.4,6.9-1.5,7.8c1.9,0.9,4.8-5.2,5.2-6
			c0.6-1.1,1.1-2.3,1.6-3.4c2.4-2.7,5.5-8.6,5.2-11.4c12.6-29.4,21.2-61.1,20.2-93.1c-0.3-8.9-1.3-17.9-3.2-26.6
			C1502,380.1,1500.4,367.5,1492.7,364.1z M1494.6,394c1.2,4.3,2.1,8.7,2.8,13.1c5.4,32.8-1.6,66.2-14.1,96.8
			c-31-21.4-63.1-43.9-84.2-75.8c-4.6-7-9-14.5-12-22.4c-1.3-3.4-2.4-7-2.7-10.7c-0.3-4.4,0.3-5.5,4.4-7.3c17.1-7.5,32,7.6,39.9,21
			c10.8,18.4,18.4,38.8,23.2,59.5c0.5,2.3,4-2.7,4.2-2.9c1.5-2.3,3.7-6.1,3.5-9c-1.7-21.6-0.4-44.3,6.2-65.1
			c1.7-5.3,4.2-10.2,9.5-12.7c4.3-2,9.9-2.4,13.5,1.1C1492.2,383.2,1493.4,389.5,1494.6,394z"/>
		<path class="st2" d="M1456.4,338.1c-1.4,2.4-3.5,6.2-2.9,9.1c1.1,4.7,2.5,9.3,4.2,13.9c0.9,2.3,4.3-3.1,4.7-3.7
			c1.2-2.1,3.8-6.5,2.9-9.1c-1.7-4.5-3.1-9.1-4.2-13.9C1460.5,332,1456.6,337.7,1456.4,338.1z"/>
		<path class="st2" d="M1491.7,326.3c-0.8-0.4-2,1-2.3,1.4c-2.2,2.5-4.4,6.4-4.8,9.8c-0.2,1.7-0.5,3.5-0.8,5.2
			c-0.1,0.8-0.3,1.5-0.5,2.3c-0.1,0.5-0.2,0.9-0.3,1.4c0,0.1-0.1,0.2-0.1,0.5c-0.3,1-1.3,5.8,1.3,3.7c2.5-2.1,4.5-6.1,5.3-9.1
			c1.1-4.1,2-8.3,2.5-12.5C1492.1,328.5,1492.5,326.7,1491.7,326.3z"/>
	</g>
	<path class="st2" d="M1814.6,388.2c8.7-18.8,15.8-43.3,10.1-64c-2.4-8.6-8-16.7-17.7-16.7c-11.2,0-21.8,6.2-28.8,14.5
		c-11,13-20.7,27.1-29.3,41.9c-3.2-20.1-4.7-43.7-27-46.6c-11.8-1.5-25.9,3.9-34.7,11.6c-11.3,10-13.1,25.3-11.3,39.5
		c6.2,39.4,34.7,69.6,58.3,99.8c1.6,2,3,3.9,4.5,5.9c-2.6,3.4-5.2,6.8-7.8,10.3c-6.9,9.5-13.4,19.4-18.7,30
		c-4.2,8.4-10.1,19.3-1.2,26.8c11.5,9.7,31.7,5.1,43-2.2c19.9-12.8,20.2-46,8.2-64.3c-1.4-2.2-2.9-4.3-4.4-6.5
		c6-7.7,12.3-15.3,18.4-22.9C1790.9,427.5,1804.9,409.1,1814.6,388.2z M1796.8,316.5c-0.4,0.2-0.7,0.1-0.8-0.5
		C1796,316.1,1796.3,316.3,1796.8,316.5z M1742.5,538.5C1742.8,538.2,1743.6,538.6,1742.5,538.5L1742.5,538.5z M1751.4,504.5
		c1,11.7-0.8,24.6-8.9,33.5c-0.1,0.1-0.3,0.2-0.5,0.4c-0.1,0-0.2,0-0.3,0c-4.4-0.8-8.6-1.1-12.3-4c-10.2-7.9,0.3-23.3,5.1-31.7
		c3.4-6.1,7.2-12,11.2-17.8C1748.6,490.8,1750.7,497,1751.4,504.5z M1722.1,422.4c-13-18.2-24.1-38-27.5-60.3
		c-1.4-11.2-1-23.9,6.6-33c3.4-4.1,5.9-4.5,10.8-2.2c4.3,2,7.5,5.5,9.9,9.5c9.9,16.2,5.4,36.5,14,53.2c2,4,17-2.6,18.4-5.5
		c10.7-22.3,23.7-43.6,39.3-62.9c1.2-1.5,2.6-2.9,3.8-4.4c0.5,0.2,1,0.5,1.1,0.6c3.4,4.5,6.3,7.3,7.9,13.1c3,11.2,1.8,24.1-0.6,35.3
		c-7.9,36.4-31.6,64.8-54.6,93.1C1741.5,446.7,1731.1,435,1722.1,422.4z"/>
	<g>
		<g>
			<path class="st2" d="M1731.8,613.4c1.2-1.2,3.1-1.2,4.3,0.2c1.2,1.3,1,3.3-0.3,4.3c-1.3,1-3.1,0.8-4.2-0.3
				C1730.6,616.4,1730.7,614.6,1731.8,613.4z"/>
		</g>
		<g>
			<path class="st2" d="M1724.7,607.6c0.5-0.7,1.2-1.1,1.9-1.3c0.8-0.1,1.6,0.1,2.3,0.6c0.7,0.5,1.1,1.3,1.2,2.1
				c0.1,0.8-0.1,1.6-0.7,2.2s-1.3,1-2,1.1c-0.7,0.1-1.5-0.1-2.1-0.6c-0.6-0.5-1-1.1-1.1-1.9C1724.1,609.1,1724.2,608.3,1724.7,607.6
				z"/>
		</g>
		<g>
			<path class="st2" d="M1716.6,603.3c0.6-1.6,2.4-2.2,4-1.5c1.6,0.8,2.2,2.7,1.3,4.1c-0.8,1.4-2.6,2-4,1.3
				C1716.6,606.6,1716,604.9,1716.6,603.3z"/>
		</g>
		<g>
			<path class="st2" d="M1707.7,600.8c0.3-1.7,1.9-2.7,3.7-2.3c1.7,0.4,2.7,2.2,2.2,3.7c-0.5,1.6-2.1,2.5-3.6,2.1
				C1708.4,604,1707.5,602.4,1707.7,600.8z"/>
		</g>
		<g>
			<path class="st2" d="M1698.5,600.2c-0.1-1.7,1.3-3,3.1-3c1.8,0.1,3.1,1.6,2.9,3.2c-0.2,1.7-1.6,2.8-3.1,2.8
				C1699.9,603.1,1698.6,601.8,1698.5,600.2z"/>
		</g>
		<g>
			<path class="st2" d="M1689.5,601.6c-0.5-1.6,0.6-3.2,2.3-3.6c1.8-0.3,3.4,0.8,3.5,2.5c0.2,1.7-0.9,3.1-2.4,3.4
				C1691.5,604.2,1689.9,603.1,1689.5,601.6z"/>
		</g>
		<g>
			<path class="st2" d="M1680.9,605c-0.8-1.5-0.2-3.3,1.5-4.1c1.6-0.7,3.5,0.1,4,1.6c0.6,1.6-0.2,3.2-1.5,3.9
				C1683.5,607.1,1681.7,606.4,1680.9,605z"/>
		</g>
		<g>
			<path class="st2" d="M1673.4,610.3c-1.1-1.2-0.9-3.2,0.5-4.3c1.5-1,3.4-0.7,4.3,0.7c0.9,1.4,0.6,3.2-0.6,4.1
				C1676.4,611.7,1674.5,611.5,1673.4,610.3z"/>
		</g>
		<g>
			<path class="st2" d="M1667.2,617c-0.7-0.5-1-1.2-1.1-2c-0.1-0.8,0.1-1.6,0.7-2.3c1.2-1.3,3.1-1.5,4.3-0.3c1.1,1.2,1.3,3,0.2,4.2
				c-0.5,0.6-1.2,0.9-2,1C1668.6,617.7,1667.8,617.5,1667.2,617z"/>
		</g>
		<g>
			<path class="st2" d="M1662.3,624.8c-1.5-0.7-2-2.6-1.1-4.1c0.9-1.5,2.8-1.9,4.2-1c1.4,0.9,1.7,2.7,1,4
				C1665.6,625.1,1663.7,625.6,1662.3,624.8z"/>
		</g>
		<g>
			<path class="st2" d="M1658.7,633.3c-0.8-0.3-1.4-0.8-1.7-1.5c-0.3-0.7-0.3-1.6,0-2.4c0.3-0.8,0.9-1.4,1.6-1.7
				c0.7-0.3,1.6-0.3,2.3,0c0.8,0.3,1.3,0.9,1.6,1.6c0.3,0.7,0.4,1.5,0.1,2.2c-0.3,0.7-0.9,1.3-1.6,1.6
				C1660.3,633.5,1659.5,633.6,1658.7,633.3z"/>
		</g>
		<g>
			<path class="st2" d="M1656.6,642.3c-0.8-0.1-1.5-0.5-2-1.2c-0.5-0.6-0.7-1.5-0.5-2.3c0.3-1.7,2-2.8,3.6-2.3
				c1.6,0.4,2.5,2,2.3,3.5C1659.7,641.4,1658.3,642.5,1656.6,642.3z"/>
		</g>
		<g>
			<path class="st2" d="M1656.3,651.5c-1.7,0.1-3.1-1.2-3.1-3c0-1.8,1.4-3.1,3.1-3c1.6,0.1,2.9,1.5,2.9,3
				C1659.3,650,1658,651.3,1656.3,651.5z"/>
		</g>
		<g>
			<path class="st2" d="M1657.7,660.6c-1.6,0.4-3.3-0.7-3.6-2.4c-0.3-1.7,0.9-3.3,2.5-3.5c1.6-0.2,3.1,0.9,3.4,2.4
				C1660.3,658.6,1659.3,660.2,1657.7,660.6z"/>
		</g>
		<g>
			<path class="st2" d="M1660.4,669.4c-1.6,0.6-3.3-0.2-3.9-1.8c-0.5-1.7,0.3-3.4,1.9-3.8c1.6-0.5,3.3,0.4,3.7,1.9
				C1662.8,667.1,1661.9,668.7,1660.4,669.4z"/>
		</g>
		<g>
			<path class="st2" d="M1664.3,677.7c-1.5,0.8-3.3,0.2-4-1.4c-0.8-1.5-0.1-3.4,1.4-4c1.5-0.7,3.2,0,4,1.4
				C1666.3,675.2,1665.7,676.9,1664.3,677.7z"/>
		</g>
		<g>
			<path class="st2" d="M1668.9,685.7c-1.4,0.9-3.3,0.5-4.1-1c-0.9-1.5-0.4-3.3,1-4.1c1.4-0.8,3.2-0.3,4.1,1
				C1670.7,682.9,1670.3,684.8,1668.9,685.7z"/>
		</g>
		<g>
			<path class="st2" d="M1674.2,693.2c-1.3,1-3.2,0.7-4.2-0.6c-1-1.4-0.7-3.3,0.7-4.2c1.4-0.9,3.2-0.6,4.2,0.7
				C1675.8,690.3,1675.5,692.2,1674.2,693.2z"/>
		</g>
		<g>
			<path class="st2" d="M1680,700.4c-1.3,1.1-3.2,0.9-4.2-0.4c-1.1-1.3-0.9-3.2,0.4-4.2c1.3-1,3.2-0.8,4.2,0.4
				C1681.4,697.4,1681.3,699.3,1680,700.4z"/>
		</g>
		<g>
			<path class="st2" d="M1686.2,707.2c-1.2,1.2-3.1,1.1-4.3-0.1c-1.2-1.2-1-3.2,0.2-4.3c1.2-1.1,3.1-1,4.2,0.2
				C1687.5,704.1,1687.4,706,1686.2,707.2z"/>
		</g>
		<g>
			<path class="st2" d="M1692.7,713.7c-1.1,1.2-3.1,1.2-4.3,0.1c-1.2-1.2-1.2-3.1,0-4.3c1.2-1.2,3.1-1.2,4.2,0
				C1693.9,710.6,1693.9,712.5,1692.7,713.7z"/>
		</g>
		<g>
			<path class="st2" d="M1699.5,719.9c-1.1,1.2-3,1.4-4.2,0.2c-1.2-1.1-1.3-3-0.2-4.3c1.1-1.2,3-1.3,4.2-0.2
				C1700.5,716.8,1700.6,718.7,1699.5,719.9z"/>
		</g>
		<g>
			<path class="st2" d="M1706.5,725.9c-1,1.3-2.9,1.5-4.2,0.4c-1.3-1.1-1.4-3-0.3-4.2c1.1-1.3,3-1.4,4.2-0.3
				C1707.4,722.7,1707.6,724.6,1706.5,725.9z"/>
		</g>
		<g>
			<path class="st2" d="M1713.8,731.6c-1,1.3-2.9,1.6-4.2,0.5c-1.3-1-1.5-2.9-0.5-4.2c1-1.3,2.9-1.5,4.2-0.5
				C1714.5,728.4,1714.8,730.3,1713.8,731.6z"/>
		</g>
		<g>
			<path class="st2" d="M1721.1,737.1c-1,1.3-2.9,1.6-4.2,0.6c-1.3-1-1.6-2.9-0.6-4.2c1-1.3,2.9-1.6,4.2-0.6
				C1721.8,733.9,1722.1,735.8,1721.1,737.1z"/>
		</g>
		<g>
			<path class="st2" d="M1728.7,742.4c-0.9,1.4-2.8,1.7-4.2,0.8c-1.4-0.9-1.7-2.8-0.7-4.2c1-1.4,2.8-1.7,4.2-0.7
				C1729.3,739.2,1729.6,741.1,1728.7,742.4z"/>
		</g>
		<g>
			<path class="st2" d="M1736.4,747.5c-0.9,1.4-2.8,1.8-4.1,0.9c-1.4-0.9-1.8-2.8-0.9-4.2c0.9-1.4,2.8-1.8,4.1-0.9
				C1736.9,744.2,1737.3,746.1,1736.4,747.5z"/>
		</g>
		<g>
			<path class="st2" d="M1749.9,744.2c0.9,1.4,0.5,3.2-0.9,4.2s-3.3,0.5-4.1-0.9c-0.9-1.4-0.5-3.2,0.9-4.1S1749,742.8,1749.9,744.2z
				"/>
		</g>
		<g>
			<path class="st2" d="M1757.5,739c1,1.3,0.6,3.2-0.7,4.2c-1.4,1-3.2,0.6-4.2-0.8s-0.6-3.2,0.8-4.2
				C1754.7,737.3,1756.6,737.7,1757.5,739z"/>
		</g>
		<g>
			<path class="st2" d="M1765,733.6c1,1.3,0.7,3.2-0.6,4.2c-1.3,1-3.2,0.7-4.2-0.6s-0.7-3.2,0.6-4.2
				C1762.1,732,1764,732.2,1765,733.6z"/>
		</g>
		<g>
			<path class="st2" d="M1772.2,727.9c1,1.3,0.8,3.2-0.5,4.2c-1.3,1-3.2,0.8-4.2-0.5c-1-1.3-0.8-3.2,0.5-4.2
				C1769.3,726.4,1771.2,726.6,1772.2,727.9z"/>
		</g>
		<g>
			<path class="st2" d="M1779.3,722c1.1,1.3,0.9,3.1-0.3,4.2c-1.3,1.1-3.2,0.9-4.2-0.4c-1-1.3-0.9-3.2,0.4-4.2
				C1776.4,720.6,1778.2,720.8,1779.3,722z"/>
		</g>
		<g>
			<path class="st2" d="M1786.2,715.9c1.1,1.2,1,3.1-0.2,4.3c-1.2,1.1-3.2,1-4.2-0.2c-1.1-1.2-1-3.1,0.2-4.2
				C1783.2,714.6,1785.1,714.7,1786.2,715.9z"/>
		</g>
		<g>
			<path class="st2" d="M1792.8,709.5c1.2,1.2,1.2,3.1,0,4.3c-1.2,1.2-3.1,1.1-4.3-0.1c-1.1-1.2-1.1-3.1,0.1-4.2
				C1789.8,708.3,1791.6,708.3,1792.8,709.5z"/>
		</g>
		<g>
			<path class="st2" d="M1799.1,702.8c1.2,1.1,1.3,3,0.2,4.3c-1.1,1.2-3.1,1.3-4.3,0.1c-1.2-1.2-1.2-3-0.1-4.2
				C1796,701.8,1797.9,701.7,1799.1,702.8z"/>
		</g>
		<g>
			<path class="st2" d="M1805.1,695.7c1.3,1,1.5,2.9,0.4,4.2c-1.1,1.3-3,1.5-4.2,0.4c-1.2-1.1-1.4-3-0.4-4.2
				C1801.9,694.9,1803.8,694.7,1805.1,695.7z"/>
		</g>
		<g>
			<path class="st2" d="M1810.6,688.4c1.4,0.9,1.7,2.8,0.7,4.2c-1,1.4-2.9,1.7-4.2,0.6c-1.3-1-1.6-2.9-0.6-4.2
				C1807.4,687.7,1809.2,687.4,1810.6,688.4z"/>
		</g>
		<g>
			<path class="st2" d="M1815.5,680.6c1.5,0.8,1.9,2.7,1,4.1c-0.9,1.5-2.8,1.9-4.1,1c-1.4-0.9-1.8-2.7-1-4.1
				C1812.2,680.2,1814.1,679.8,1815.5,680.6z"/>
		</g>
		<g>
			<path class="st2" d="M1819.6,672.3c1.5,0.6,2.2,2.5,1.4,4c-0.7,1.6-2.6,2.1-4,1.4c-1.5-0.8-2-2.5-1.4-4
				C1816.4,672.3,1818.1,671.7,1819.6,672.3z"/>
		</g>
		<g>
			<path class="st2" d="M1822.8,663.7c1.6,0.5,2.5,2.2,1.9,3.8c-0.6,1.6-2.3,2.5-3.9,1.8c-1.5-0.6-2.3-2.3-1.8-3.8
				C1819.5,664.1,1821.2,663.2,1822.8,663.7z"/>
		</g>
		<g>
			<path class="st2" d="M1824.7,654.7c1.6,0.2,2.8,1.8,2.5,3.5c-0.3,1.7-2,2.8-3.6,2.4c-1.6-0.4-2.6-1.9-2.3-3.5
				C1821.6,655.6,1823,654.5,1824.7,654.7z"/>
		</g>
		<g>
			<path class="st2" d="M1825,645.5c1.7-0.1,3.1,1.2,3.1,3c0,1.8-1.4,3.1-3.1,3c-1.6-0.1-2.9-1.5-2.9-3
				C1822,646.9,1823.3,645.6,1825,645.5z"/>
		</g>
		<g>
			<path class="st2" d="M1823.5,636.4c1.6-0.4,3.3,0.6,3.6,2.3c0.2,0.9,0,1.7-0.5,2.3c-0.5,0.6-1.2,1.1-2,1.2
				c-1.7,0.2-3.1-0.9-3.4-2.4C1821,638.4,1821.9,636.8,1823.5,636.4z"/>
		</g>
		<g>
			<path class="st2" d="M1820.4,627.7c0.8-0.3,1.6-0.3,2.3,0c0.7,0.3,1.3,0.9,1.6,1.7c0.3,0.8,0.3,1.7,0,2.4
				c-0.3,0.7-0.9,1.3-1.7,1.5c-0.8,0.3-1.6,0.2-2.3-0.1c-0.7-0.3-1.3-0.9-1.6-1.6c-0.3-0.7-0.2-1.5,0.1-2.2
				C1819.1,628.7,1819.6,628.1,1820.4,627.7z"/>
		</g>
		<g>
			<path class="st2" d="M1816,619.7c1.3-0.9,3.3-0.5,4.2,1c0.9,1.5,0.3,3.4-1.1,4.1c-1.5,0.7-3.3,0.2-4-1.1
				C1814.2,622.4,1814.6,620.6,1816,619.7z"/>
		</g>
		<g>
			<path class="st2" d="M1810.2,612.5c1.2-1.2,3.1-1.1,4.3,0.3c0.6,0.6,0.8,1.5,0.7,2.3c-0.1,0.8-0.5,1.5-1.1,2s-1.5,0.7-2.2,0.6
				c-0.7-0.1-1.4-0.4-2-1C1809,615.5,1809.1,613.6,1810.2,612.5z"/>
		</g>
		<g>
			<path class="st2" d="M1803.1,606.7c0.9-1.4,2.8-1.7,4.3-0.7c1.4,1.1,1.6,3.1,0.5,4.3s-3,1.5-4.1,0.5
				C1802.5,609.9,1802.2,608.1,1803.1,606.7z"/>
		</g>
		<g>
			<path class="st2" d="M1794.9,602.6c0.5-1.5,2.4-2.3,4-1.6c1.6,0.8,2.3,2.6,1.5,4.1c-0.8,1.4-2.6,2.1-3.9,1.4
				C1795.1,605.8,1794.3,604.1,1794.9,602.6z"/>
		</g>
		<g>
			<path class="st2" d="M1786,600.4c0.2-1.6,1.8-2.8,3.5-2.5c1.8,0.4,2.8,2,2.3,3.6c-0.5,1.6-2,2.6-3.5,2.3
				C1786.9,603.5,1785.8,602.1,1786,600.4z"/>
		</g>
		<g>
			<path class="st2" d="M1776.8,600.3c-0.2-1.6,1.1-3.1,2.9-3.2c1.8,0,3.2,1.3,3.1,3c-0.1,1.6-1.4,3-2.9,3
				C1778.3,603.2,1776.9,602,1776.8,600.3z"/>
		</g>
		<g>
			<path class="st2" d="M1767.8,602.3c-0.5-1.6,0.4-3.3,2.2-3.7c1.7-0.4,3.4,0.6,3.7,2.3c0.3,1.6-0.7,3.2-2.2,3.5
				C1769.9,604.7,1768.3,603.8,1767.8,602.3z"/>
		</g>
		<g>
			<path class="st2" d="M1759.3,606c-0.8-1.4-0.3-3.3,1.3-4.1c1.6-0.8,3.4-0.1,4,1.5c0.6,1.5,0,3.3-1.4,3.9
				C1761.9,607.9,1760.2,607.4,1759.3,606z"/>
		</g>
		<g>
			<path class="st2" d="M1751.8,611.3c-0.5-0.6-0.8-1.4-0.7-2.2c0.1-0.8,0.5-1.6,1.2-2.1c0.7-0.5,1.5-0.7,2.3-0.6
				c0.8,0.1,1.5,0.6,1.9,1.3c0.5,0.7,0.6,1.5,0.5,2.2c-0.1,0.8-0.5,1.4-1.1,1.9c-0.6,0.4-1.4,0.6-2.1,0.6
				C1753.1,612.2,1752.4,611.9,1751.8,611.3z"/>
		</g>
		<g>
			<path class="st2" d="M1745.5,617.9c-1.3-1-1.5-3-0.3-4.3c1.2-1.4,3.1-1.4,4.3-0.2c1.2,1.2,1.2,3,0.2,4.2
				C1748.6,618.7,1746.8,618.9,1745.5,617.9z"/>
		</g>
		<g>
			<path class="st2" d="M1742.2,749.2l-0.2-0.3l-0.2-0.2l-0.2-0.2l-0.2-0.2l-0.2-0.2l-0.2-0.2l-0.2-0.1l-0.1-0.1l-0.1,0l0,0l0,0h0
				l0,0l0,0l0,0c0,0,0,0,0,0c0,0,0,0,0,0l0,0l0,0l0,0h0l0,0l0,0l-0.1,0l-0.1,0.1l-0.2,0.1l-0.2,0.2l-0.2,0.2l-0.2,0.2l-0.2,0.2
				l-0.2,0.2l-0.2,0.3l-0.2,0.3l-0.1,0.3l-0.1,0.3l-0.1,0.3l-0.1,0.3l-0.1,0.3l0,0.2l0,0.2v0.1l0,0.1l0,0.1l0,0.1l0,0.1l0,0.1l0,0.1
				l0,0.1l0,0.1l0,0.1l0.1,0.1l0.1,0.1l0.1,0.1l0.1,0.1l0.1,0.1l0.1,0.1l0.1,0l0.1,0l0.1,0l0.1,0l0.1,0l0.1,0h0.1l0.1,0l0.1,0l0.1,0
				l0.1,0l0.1,0l0.1,0l0.1,0l0.1,0l0.1-0.1l0.1,0.1l0.1,0l0.1,0l0.1,0l0.1,0l0.1,0l0.1,0l0.1,0l0.1,0h0.1l0.1,0l0.1,0l0.1,0l0.1,0
				l0.1,0l0.1,0l0.1-0.1l0.1-0.1l0.1-0.1l0.1-0.1l0.1-0.1l0.1-0.1l0-0.1l0-0.1l0-0.1l0-0.1l0-0.1l0-0.1l0-0.1l0-0.1l0-0.1v-0.1
				l0-0.2l0-0.2l-0.1-0.3l-0.1-0.3l-0.1-0.3l-0.1-0.3l-0.1-0.3L1742.2,749.2z"/>
		</g>
		<g>
			<path class="st2" d="M1737.7,620.5l0.1-0.1l0.1-0.1l0.1-0.1l0.1,0l0.2,0l0.2,0h0.2l0.2,0l0.2,0l0.2,0l0.2,0l0.2,0.1l0.2,0.1
				l0.2,0.1l0.2,0.1l0.1,0.1l0,0l0,0l0,0h0l0,0l0,0c0.2,0,0.1,0,0.2,0c0.2,0,0.1,0,0.2,0l0,0l0,0h0l0,0l0,0l0,0l0.1-0.1l0.2-0.1
				l0.2-0.1l0.2-0.1l0.2-0.1l0.2,0l0.2,0l0.2,0l0.2,0h0.2l0.2,0l0.2,0l0.1,0l0.1,0.1l0.1,0.1l0.1,0.1l0.1,0.1l0.1,0.1l0.1,0.1
				l0.1,0.1l0.1,0.1l0.1,0.1l0.1,0.1l0.1,0.2l0,0.2l0,0.2l0,0.2l0,0.2l0,0.2l0,0.2v0.2l0,0.2l0,0.2l0,0.2l-0.1,0.4l0,0.2l0,0.2
				l-0.1,0.2l-0.1,0.2l-0.1,0.2l-0.1,0.2l-0.1,0.2l-0.1,0.2l-0.1,0.2l-0.1,0.2l-0.1,0.2l-0.1,0.2c-0.1,0.2-0.2,0.3-0.3,0.5l-0.3,0.5
				l-0.3,0.4l-0.3,0.4l-0.2,0.2l-0.2,0.2l-0.2,0.2l-0.2,0.2l-0.2,0.2l-0.2,0.1l-0.2,0.1l-0.2,0.1l-0.2-0.1l-0.2-0.1l-0.2-0.1
				l-0.2-0.2l-0.2-0.2l-0.2-0.2l-0.2-0.2l-0.2-0.2l-0.3-0.4l-0.3-0.4l-0.3-0.5c-0.1-0.2-0.2-0.3-0.3-0.5l-0.1-0.2l-0.1-0.2l-0.1-0.2
				l-0.1-0.2l-0.1-0.2l-0.1-0.2l-0.1-0.2l-0.1-0.2l-0.1-0.2l-0.1-0.2l0-0.2l0-0.2l-0.1-0.4l0-0.2l0-0.2l0-0.2v-0.2l0-0.2l0-0.2
				l0-0.2l0-0.2l0-0.2l0-0.2l0.1-0.2l0.1-0.1l0.1-0.1l0.1-0.1l0.1-0.1l0.1-0.1l0.1-0.1L1737.7,620.5z"/>
		</g>
	</g>
	<path class="st2" d="M1258.5,163.3c0-0.1,0-0.1,0-0.2c0,0,0-0.1,0-0.1c0-0.9-0.3-1.8-1.1-2.6c-2.2-2.2-4.4-4.4-6.6-6.6
		c2.2-2.2,4.4-4.4,6.6-6.6c0.8-0.8,1.1-1.7,1.1-2.6c0-0.1,0-0.1,0-0.2c0,0,0-0.1,0-0.1c0-0.9-0.3-1.8-1.1-2.6
		c-2.2-2.2-4.4-4.4-6.6-6.6c2.2-2.2,4.4-4.4,6.6-6.6c3.5-3.5-1.9-9-5.5-5.5c-2.2,2.2-4.4,4.4-6.6,6.6c-2.2-2.2-4.4-4.4-6.6-6.6
		c-2.2-2.2-4.4-4.4-6.6-6.6c2.2-2.2,4.4-4.4,6.6-6.6c3.5-3.5-1.9-9-5.5-5.5c-2.2,2.2-4.4,4.4-6.6,6.6c-2.2-2.2-4.4-4.4-6.6-6.6
		c-0.8-0.8-1.7-1.1-2.6-1.1c-0.1,0-0.1,0-0.2,0c0,0-0.1,0-0.1,0c-0.9,0-1.8,0.3-2.6,1.1c-2.2,2.2-4.4,4.4-6.6,6.6
		c-2.2-2.2-4.4-4.4-6.6-6.6c-3.5-3.5-9,1.9-5.5,5.5c2.2,2.2,4.4,4.4,6.6,6.6c-2.2,2.2-4.4,4.4-6.6,6.6c-2.2,2.2-4.4,4.4-6.6,6.6
		c-2.2-2.2-4.4-4.4-6.6-6.6c-3.5-3.5-9,1.9-5.5,5.5c2.2,2.2,4.4,4.4,6.6,6.6c-2.2,2.2-4.4,4.4-6.6,6.6c-2.2,2.2-4.4,4.4-6.6,6.6
		c-2.2-2.2-4.4-4.4-6.6-6.6c-2.2-2.2-4.4-4.4-6.6-6.6c2.2-2.2,4.4-4.4,6.6-6.6c3.5-3.5-1.9-9-5.5-5.5c-2.2,2.2-4.4,4.4-6.6,6.6
		c-2.2-2.2-4.4-4.4-6.6-6.6c-2.2-2.2-4.4-4.4-6.6-6.6c2.2-2.2,4.4-4.4,6.6-6.6c3.5-3.5-1.9-9-5.5-5.5c-2.2,2.2-4.4,4.4-6.6,6.6
		c-2.2-2.2-4.4-4.4-6.6-6.6c-0.8-0.8-1.7-1.1-2.6-1.1c-0.1,0-0.1,0-0.2,0c0,0-0.1,0-0.1,0c-0.9,0-1.8,0.3-2.6,1.1
		c-2.2,2.2-4.4,4.4-6.6,6.6c-2.2-2.2-4.4-4.4-6.6-6.6c-3.5-3.5-9,1.9-5.5,5.5c2.2,2.2,4.4,4.4,6.6,6.6c-2.2,2.2-4.4,4.4-6.6,6.6
		c-2.2,2.2-4.4,4.4-6.6,6.6c-2.2-2.2-4.4-4.4-6.6-6.6c-3.5-3.5-9,1.9-5.5,5.5c2.2,2.2,4.4,4.4,6.6,6.6c-2.2,2.2-4.4,4.4-6.6,6.6
		c-0.8,0.8-1.1,1.7-1.1,2.6c0,0.1,0,0.1,0,0.2c0,0,0,0.1,0,0.1c0,0.9,0.3,1.8,1.1,2.6c2.2,2.2,4.4,4.4,6.6,6.6
		c-2.2,2.2-4.4,4.4-6.6,6.6c-0.8,0.8-1.1,1.7-1.1,2.6c0,0.1,0,0.1,0,0.2c0,0,0,0.1,0,0.1c0,0.9,0.3,1.8,1.1,2.6
		c2.2,2.2,4.4,4.4,6.6,6.6c-2.2,2.2-4.4,4.4-6.6,6.6c-3.5,3.5,1.9,9,5.5,5.5c2.2-2.2,4.4-4.4,6.6-6.6c2.2,2.2,4.4,4.4,6.6,6.6
		c2.2,2.2,4.4,4.4,6.6,6.6c-2.2,2.2-4.4,4.4-6.6,6.6c-3.5,3.5,1.9,9,5.5,5.5c2.2-2.2,4.4-4.4,6.6-6.6c2.2,2.2,4.4,4.4,6.6,6.6
		c2.2,2.2,4.4,4.4,6.6,6.6c-2.2,2.2-4.4,4.4-6.6,6.6c-3.5,3.5,1.9,9,5.5,5.5c2.2-2.2,4.4-4.4,6.6-6.6c2.2,2.2,4.4,4.4,6.6,6.6
		c2.2,2.2,4.4,4.4,6.6,6.6c-2.2,2.2-4.4,4.4-6.6,6.6c-3.5,3.5,1.9,9,5.5,5.5c2.2-2.2,4.4-4.4,6.6-6.6c2.2,2.2,4.4,4.4,6.6,6.6
		c2.2,2.2,4.4,4.4,6.6,6.6c-2.2,2.2-4.4,4.4-6.6,6.6c-3.5,3.5,1.9,9,5.5,5.5c2.2-2.2,4.4-4.4,6.6-6.6c2.2,2.2,4.4,4.4,6.6,6.6
		c3.5,3.5,9-1.9,5.5-5.5c-2.2-2.2-4.4-4.4-6.6-6.6c2.2-2.2,4.4-4.4,6.6-6.6c2.2-2.2,4.4-4.4,6.6-6.6c2.2,2.2,4.4,4.4,6.6,6.6
		c3.5,3.5,9-1.9,5.5-5.5c-2.2-2.2-4.4-4.4-6.6-6.6c2.2-2.2,4.4-4.4,6.6-6.6c2.2-2.2,4.4-4.4,6.6-6.6c2.2,2.2,4.4,4.4,6.6,6.6
		c3.5,3.5,9-1.9,5.5-5.5c-2.2-2.2-4.4-4.4-6.6-6.6c2.2-2.2,4.4-4.4,6.6-6.6c2.2-2.2,4.4-4.4,6.6-6.6c2.2,2.2,4.4,4.4,6.6,6.6
		c3.5,3.5,9-1.9,5.5-5.5c-2.2-2.2-4.4-4.4-6.6-6.6c2.2-2.2,4.4-4.4,6.6-6.6c2.2-2.2,4.4-4.4,6.6-6.6c2.2,2.2,4.4,4.4,6.6,6.6
		c3.5,3.5,9-1.9,5.5-5.5c-2.2-2.2-4.4-4.4-6.6-6.6c2.2-2.2,4.4-4.4,6.6-6.6C1258.2,165.1,1258.5,164.2,1258.5,163.3z M1233.4,179
		c-2.2,2.2-4.4,4.4-6.6,6.6c-2.2-2.2-4.4-4.4-6.6-6.6c-3.5-3.5-9,1.9-5.5,5.5c2.2,2.2,4.4,4.4,6.6,6.6c-2.2,2.2-4.4,4.4-6.6,6.6
		c-2.2,2.2-4.4,4.4-6.6,6.6c-2.2-2.2-4.4-4.4-6.6-6.6c-3.5-3.5-9,1.9-5.5,5.5c2.2,2.2,4.4,4.4,6.6,6.6c-2.2,2.2-4.4,4.4-6.6,6.6
		c-2.2,2.2-4.4,4.4-6.6,6.6c-2.2-2.2-4.4-4.4-6.6-6.6c-3.5-3.5-9,1.9-5.5,5.5c2.2,2.2,4.4,4.4,6.6,6.6c-2.2,2.2-4.4,4.4-6.6,6.6
		c-2.2,2.2-4.4,4.4-6.6,6.6c-2.2-2.2-4.4-4.4-6.6-6.6c-2.2-2.2-4.4-4.4-6.6-6.6c2.2-2.2,4.4-4.4,6.6-6.6c3.5-3.5-1.9-9-5.5-5.5
		c-2.2,2.2-4.4,4.4-6.6,6.6c-2.2-2.2-4.4-4.4-6.6-6.6c-2.2-2.2-4.4-4.4-6.6-6.6c2.2-2.2,4.4-4.4,6.6-6.6c3.5-3.5-1.9-9-5.5-5.5
		c-2.2,2.2-4.4,4.4-6.6,6.6c-2.2-2.2-4.4-4.4-6.6-6.6c-2.2-2.2-4.4-4.4-6.6-6.6c2.2-2.2,4.4-4.4,6.6-6.6c3.5-3.5-1.9-9-5.5-5.5
		c-2.2,2.2-4.4,4.4-6.6,6.6c-2.2-2.2-4.4-4.4-6.6-6.6c-2.2-2.2-4.4-4.4-6.6-6.6c2.2-2.2,4.4-4.4,6.6-6.6c0.8-0.8,1.1-1.7,1.1-2.6
		c0-0.1,0-0.1,0-0.2c0,0,0-0.1,0-0.1c0-0.9-0.3-1.8-1.1-2.6c-2.2-2.2-4.4-4.4-6.6-6.6c2.2-2.2,4.4-4.4,6.6-6.6
		c0.8-0.8,1.1-1.7,1.1-2.6c0-0.1,0-0.1,0-0.2c0,0,0-0.1,0-0.1c0-0.9-0.3-1.8-1.1-2.6c-2.2-2.2-4.4-4.4-6.6-6.6
		c2.2-2.2,4.4-4.4,6.6-6.6c2.2-2.2,4.4-4.4,6.6-6.6c2.2,2.2,4.4,4.4,6.6,6.6c0.8,0.8,1.7,1.1,2.6,1.1c0.1,0,0.1,0,0.2,0
		c0,0,0.1,0,0.1,0c0.9,0,1.8-0.3,2.6-1.1c2.2-2.2,4.4-4.4,6.6-6.6c2.2,2.2,4.4,4.4,6.6,6.6c2.2,2.2,4.4,4.4,6.6,6.6
		c-2.2,2.2-4.4,4.4-6.6,6.6c-3.5,3.5,1.9,9,5.5,5.5c2.2-2.2,4.4-4.4,6.6-6.6c2.2,2.2,4.4,4.4,6.6,6.6c2.2,2.2,4.4,4.4,6.6,6.6
		c-2.2,2.2-4.4,4.4-6.6,6.6c-3.5,3.5,1.9,9,5.5,5.5c2.2-2.2,4.4-4.4,6.6-6.6c2.2,2.2,4.4,4.4,6.6,6.6c3.5,3.5,9-1.9,5.5-5.5
		c-2.2-2.2-4.4-4.4-6.6-6.6c2.2-2.2,4.4-4.4,6.6-6.6c2.2-2.2,4.4-4.4,6.6-6.6c2.2,2.2,4.4,4.4,6.6,6.6c3.5,3.5,9-1.9,5.5-5.5
		c-2.2-2.2-4.4-4.4-6.6-6.6c2.2-2.2,4.4-4.4,6.6-6.6c2.2-2.2,4.4-4.4,6.6-6.6c2.2,2.2,4.4,4.4,6.6,6.6c0.8,0.8,1.7,1.1,2.6,1.1
		c0.1,0,0.1,0,0.2,0c0,0,0.1,0,0.1,0c0.9,0,1.8-0.3,2.6-1.1c2.2-2.2,4.4-4.4,6.6-6.6c2.2,2.2,4.4,4.4,6.6,6.6
		c2.2,2.2,4.4,4.4,6.6,6.6c-2.2,2.2-4.4,4.4-6.6,6.6c-0.8,0.8-1.1,1.7-1.1,2.6c0,0.1,0,0.1,0,0.2c0,0,0,0.1,0,0.1
		c0,0.9,0.3,1.8,1.1,2.6c2.2,2.2,4.4,4.4,6.6,6.6c-2.2,2.2-4.4,4.4-6.6,6.6c-0.8,0.8-1.1,1.7-1.1,2.6c0,0.1,0,0.1,0,0.2
		c0,0,0,0.1,0,0.1c0,0.9,0.3,1.8,1.1,2.6c2.2,2.2,4.4,4.4,6.6,6.6C1237.7,174.6,1235.6,176.8,1233.4,179z M1100.7,144.6
		c-1.3,1.3-2.5,2.5-3.8,3.8c-1.3-1.3-2.5-2.5-3.8-3.8c1.3-1.3,2.5-2.5,3.8-3.8C1098.2,142,1099.4,143.3,1100.7,144.6z M1100.7,163.1
		c-1.3,1.3-2.5,2.5-3.8,3.8c-1.3-1.3-2.5-2.5-3.8-3.8c1.3-1.3,2.5-2.5,3.8-3.8C1098.2,160.6,1099.4,161.9,1100.7,163.1z
		 M1124.7,112.9c1.3,1.3,2.5,2.5,3.8,3.8c-1.3,1.3-2.5,2.5-3.8,3.8c-1.3-1.3-2.5-2.5-3.8-3.8
		C1122.2,115.5,1123.5,114.2,1124.7,112.9z M1217.5,112.9c1.3,1.3,2.5,2.5,3.8,3.8c-1.3,1.3-2.5,2.5-3.8,3.8
		c-1.3-1.3-2.5-2.5-3.8-3.8C1215,115.5,1216.3,114.2,1217.5,112.9z M1241.6,144.6c1.3-1.3,2.5-2.5,3.8-3.8c1.3,1.3,2.5,2.5,3.8,3.8
		c-1.3,1.3-2.5,2.5-3.8,3.8C1244.1,147.1,1242.9,145.9,1241.6,144.6z M1241.6,163.1c1.3-1.3,2.5-2.5,3.8-3.8
		c1.3,1.3,2.5,2.5,3.8,3.8c-1.3,1.3-2.5,2.5-3.8,3.8C1244.1,165.7,1242.9,164.4,1241.6,163.1z"/>
	<g>
		<rect x="163.7" y="1135.4" class="st2" width="22.6" height="22.6"/>
		<rect x="163.7" y="1160.8" class="st2" width="22.6" height="22.6"/>
		<rect x="189.1" y="1135.4" class="st2" width="22.6" height="22.6"/>
		<rect x="189.1" y="1160.8" class="st2" width="22.6" height="22.6"/>
		<rect x="214.5" y="1135.4" class="st2" width="22.6" height="22.6"/>
		<rect x="214.5" y="1160.8" class="st2" width="22.6" height="22.6"/>
		<rect x="239.9" y="1135.4" class="st2" width="22.6" height="22.6"/>
		<rect x="239.9" y="1160.8" class="st2" width="22.6" height="22.6"/>
		<rect x="265.2" y="1135.4" class="st2" width="22.6" height="22.6"/>
		<rect x="265.2" y="1160.8" class="st2" width="22.6" height="22.6"/>
		<rect x="290.6" y="1135.4" class="st2" width="22.6" height="22.6"/>
		<rect x="290.6" y="1160.8" class="st2" width="22.6" height="22.6"/>
		<rect x="189.1" y="1186.2" class="st2" width="22.6" height="22.6"/>
		<rect x="214.5" y="1186.2" class="st2" width="22.6" height="22.6"/>
		<rect x="239.9" y="1186.2" class="st2" width="22.6" height="22.6"/>
		<rect x="265.2" y="1186.2" class="st2" width="22.6" height="22.6"/>
		<rect x="214.5" y="1211.6" class="st2" width="22.6" height="22.6"/>
		<rect x="239.9" y="1211.6" class="st2" width="22.6" height="22.6"/>
		<rect x="239.9" y="1237" class="st2" width="22.6" height="22.6"/>
		<rect x="265.2" y="1211.6" class="st2" width="22.6" height="22.6"/>
		<rect x="290.6" y="1186.2" class="st2" width="22.6" height="22.6"/>
		<rect x="316" y="1135.4" class="st2" width="22.6" height="22.6"/>
		<rect x="316" y="1160.8" class="st2" width="22.6" height="22.6"/>
		<rect x="189.1" y="1110.1" class="st2" width="22.6" height="22.6"/>
		<rect x="214.5" y="1110.1" class="st2" width="22.6" height="22.6"/>
		<rect x="265.2" y="1110.1" class="st2" width="22.6" height="22.6"/>
		<rect x="290.6" y="1110.1" class="st2" width="22.6" height="22.6"/>
	</g>
	<g>
		<polygon class="st2" points="1715.3,105.9 1689.5,105.9 1660.6,131.6 1660.6,183.2 1744.1,257.5 1744.1,131.6 		"/>
		<polygon class="st2" points="1780.7,105.9 1806.4,105.9 1835.4,131.6 1835.4,183.2 1751.8,257.5 1751.8,131.6 		"/>
	</g>
	<path class="st0" d="M1827.5,917.6c-4.2-17.8-17.6-32.1-36.1-34.8c-20.1-2.9-38.6,8.3-49.5,24.5c-10-14.9-26.1-25.6-44.6-25
		c-17.3,0.6-32,11.4-38.5,27.3c-11.9,29.2,1.3,57.3,20.7,80.1c0,0.1,0.1,0.1,0.1,0.2c9.1,10.7,19.6,20.3,29.5,28.2
		c10.1,8.1,20.6,15.9,31.8,22.4c0.1,0.1,0.3,0.2,0.4,0.2c0,0,0,0,0,0l0,0c0.4,0.1,0.8,0.1,1.2-0.2c27.1-15.7,53.7-37.6,71.3-63.7
		C1825.9,959.4,1832.6,938.8,1827.5,917.6z M1815.7,965.5c-6.1-2.3-12.1-4.6-18.2-6.9c5.5-7.6,10.2-16,15.1-24.1
		C1813.6,944.8,1814.7,955.1,1815.7,965.5C1815.7,965.5,1815.7,965.5,1815.7,965.5z M1725.5,1004.1c-0.5-1.1-1.2-2.2-1.9-3.3
		c11.1,2.7,22.3,5.4,33.4,8.1c-5,9-10,18.1-15,27.1C1736.5,1025.4,1731,1014.7,1725.5,1004.1z M1722.4,905.1c1,4.4,0.7,9.5,1.1,14
		c0.2,2.6,0.5,5.3,0.7,7.9c-3.9-3.5-8.2-6.8-12.2-10.1c-6.3-5.3-12.5-10.5-18.8-15.8c1.4-1.1,2.8-2.3,4.3-3.4
		C1705.8,900.1,1714.1,902.6,1722.4,905.1z M1700.5,895.3c3.2-2.5,6.4-5,9.5-7.6c2.1,2.9,4.3,5.8,6.4,8.7c1.1,1.6,2.3,3.1,3.4,4.7
		C1713.4,899.1,1707,897.2,1700.5,895.3z M1764,906.5c-0.6-3.7-1.2-7.4-1.7-11.1c8.1,6.2,16.2,12.4,24.3,18.5
		c-7.3-1.1-14.6-2.2-21.9-3.2C1764.4,909.3,1764.2,907.9,1764,906.5z M1741.9,912.9c7.6,10.7,15.1,21.4,22.7,32.1
		c-0.1,0-0.2-0.1-0.3-0.1c-4.5-1.9-9-3.7-13.5-5.6c-7.4-3.1-14.8-6.2-22.3-9.3C1733,924.3,1737.5,918.6,1741.9,912.9z M1725.5,958.5
		c9,1.4,18,3,26.8,4.4c-9.8,9.7-19.5,19.5-29.3,29.2c0.4-4.3,0.5-8.7,0.8-13C1724.4,972.2,1725,965.3,1725.5,958.5z M1755.7,959.6
		c-7.8-8.2-15.6-16.4-23.4-24.6c0,0,0,0,0,0c11.3,4.7,22.6,9.4,33.9,14.1C1762.7,952.5,1759.2,956,1755.7,959.6z M1722.7,955
		c-4.1-0.6-8.2-1.1-12.3-1.4c4.5-5.9,9.1-11.7,13.6-17.5c-0.6,5.1-0.6,10.3-1,15.3C1722.8,952.5,1722.8,953.7,1722.7,955z
		 M1727.4,934.2c0.2,0.3,0.5,0.6,0.7,0.8c7.8,8.2,15.5,16.4,23.3,24.5c-8.5-1.3-17.1-2.9-25.7-4.2
		C1726.3,948.4,1726.8,941.3,1727.4,934.2z M1758.4,961.2c2.8-2.8,5.6-5.6,8.5-8.4c0.3-0.3,0.7-0.6,1.1-1c1.3,8.2,2.6,16.5,3.9,24.7
		c-4.7-4.9-9.3-9.8-14-14.7C1758,961.6,1758.2,961.4,1758.4,961.2z M1698.7,931.3c7.9,0.3,15.7,0.5,23.6,0.8c0.2,0,0.5,0,0.7,0.1
		c-5.2,6.7-10.5,13.5-15.7,20.2c-2.8-3.3-7.3-6.2-10.3-8.9c-4.8-4.2-9.5-8.5-14.3-12.7C1688.1,930.9,1693.4,931.1,1698.7,931.3z
		 M1681.5,927.6c3.3-8,6.7-16,10-24c4.4,3.7,8.9,7.5,13.3,11.2c5.5,4.6,11,9.2,16.5,13.8c0.1,0.1,0.3,0.2,0.4,0.3c0,0,0,0-0.1,0
		c-11.8-0.4-23.6-0.8-35.3-1.2C1684.7,927.7,1683.1,927.7,1681.5,927.6z M1722.4,958c-0.5,6.2-1,12.5-1.5,18.8
		c-0.3,4.5-0.7,9-1,13.5c-1.3-4.1-2.5-8.1-3.8-12.2c-2.1-6.8-3.5-14.9-6.4-21.5C1714,956.9,1718.2,957.4,1722.4,958z M1755.6,964
		c2.9,3,5.7,6,8.6,9c2.2,2.3,4.4,4.6,6.6,6.9c0.1,0.1,0.2,0.3,0.4,0.4c-15.8,5.2-31.7,10.4-47.5,15.6
		C1734.3,985.3,1744.9,974.7,1755.6,964z M1771.1,952.1c2.1,0.8,4.4,1.4,6.3,2.1c5,1.9,10.1,3.8,15.1,5.8
		c-4.7,6.1-11.5,12.8-17.2,19C1773.9,970,1772.5,961.1,1771.1,952.1z M1772,948.8c13.1-6.2,26.3-12.3,39.4-18.5
		c-5.6,9.1-10.9,18.4-17,27.1C1787,954.5,1779.5,951.7,1772,948.8z M1773.9,944.5c6.4-8.6,12.8-17.2,19.2-25.8
		c5.4,3.4,11.2,6.1,16.9,8.9C1798,933.2,1785.9,938.8,1773.9,944.5z M1800,919.1c3.7,0.5,7.4,1.1,11.1,1.6c0.1,1.4,0.3,2.8,0.4,4.1
		C1807.7,922.9,1803.8,921.1,1800,919.1z M1795.6,915.3c4.4-5.9,8.8-11.8,13.1-17.7c0.7,6.6,1.4,13.3,2.1,19.9
		C1805.7,916.8,1800.7,916,1795.6,915.3z M1792.4,914.4c-0.7-0.5-1.3-0.9-2-1.4c-8.5-6.5-17-13-25.6-19.5
		c14.1,0.4,28.2,0.7,42.3,1.1C1802.2,901.2,1797.3,907.8,1792.4,914.4z M1790,917.6c-3.6,4.9-7.2,9.7-10.8,14.6
		c-2.5,3.4-5,6.8-7.6,10.2c-0.5,0.7-1.1,1.4-1.7,2.1c-1.6-10.2-3.2-20.3-4.8-30.5C1773.4,915.1,1781.7,916.4,1790,917.6z
		 M1766.4,942.2c-7.4-10.4-14.8-20.9-22.1-31.3c5.9,0.9,11.8,1.7,17.6,2.6C1763.4,923,1764.9,932.6,1766.4,942.2z M1727.3,926.6
		c-0.2-2.9-0.5-5.9-0.8-8.8c-0.3-3.6-0.1-7.9-0.7-11.7c4.7,1.4,9.4,2.8,14.1,4.2C1735.7,915.7,1731.5,921.2,1727.3,926.6z
		 M1690.8,899c-2.1-1.7-4.1-3.5-6.2-5.2c3.1,0.9,6.1,1.8,9.2,2.8C1692.9,897.4,1691.8,898.2,1690.8,899z M1688.3,901
		c-2.7,2.2-5.4,4.3-8.2,6.5c-0.1-4.5-0.2-9.1-0.4-13.6C1682.7,896.2,1685.5,898.6,1688.3,901z M1687.2,905.8
		c-2.2,5.3-4.4,10.6-6.6,15.8c-0.1-3.5-0.2-6.9-0.3-10.4C1682.6,909.5,1684.9,907.7,1687.2,905.8z M1677.6,927.5
		c-5.7-0.2-11.3-0.4-17-0.6c5.5-4.4,11.1-8.8,16.6-13.2C1677.4,918.3,1677.5,922.9,1677.6,927.5z M1693.9,944.9
		c3,2.7,6.1,5.4,9.1,8.1c-7.1-0.3-14.4-0.2-21.6,0c-0.2-6.6-0.4-13.2-0.5-19.7C1685.2,937.2,1689.6,941,1693.9,944.9z M1684.4,956.5
		c6.1,0,14-0.5,19.9-0.3c-7.3,9.4-14.7,18.9-22,28.3c-0.3-9.3-0.5-18.6-0.8-28C1682.5,956.5,1683.5,956.5,1684.4,956.5z
		 M1679.2,984.4c-6.8-8.4-12.8-17.7-16.8-27.7c5.3,0,10.7-0.1,16-0.1C1678.7,965.9,1678.9,975.1,1679.2,984.4z M1683.6,987.9
		c7.8-10,15.5-20,23.3-29.9c2.7,7.1,4.4,14.8,6.7,22.1c1.7,5.4,3.3,10.9,5,16.3C1706.9,993.6,1695.2,990.7,1683.6,987.9z
		 M1726.6,998.3c14.8-4.8,29.6-9.6,44.3-14.5c-0.1,0.3-0.3,0.6-0.4,0.8c-1.9,3.4-3.8,6.9-5.7,10.3c-2.1,3.7-4.1,7.5-6.2,11.2
		C1747.9,1003.5,1737.2,1000.9,1726.6,998.3z M1773.3,986c0.6,4,1.2,7.9,1.9,11.9c0.7,4.2,1.3,8.4,2,12.6
		c-5.1-1.2-10.3-2.5-15.4-3.7C1765.6,999.9,1769.4,992.9,1773.3,986z M1795.6,961.1c5.2,2,10.3,3.9,15.5,5.9
		c-9.9,3.3-19.7,6.6-29.6,9.9C1786.3,971.8,1791.3,966.7,1795.6,961.1z M1814.7,925.3c-0.1-1.4-0.3-2.8-0.4-4.2
		c2.4,0.3,4.7,0.7,7.1,1C1819.2,923.2,1816.9,924.3,1814.7,925.3z M1824.8,919.6c-3.6-0.5-7.2-1.1-10.8-1.6
		c-0.8-7.3-1.5-14.7-2.3-22C1818.2,902.1,1822.7,910.4,1824.8,919.6z M1788.8,885.7c6.4,0.6,12.1,2.6,17.1,5.7
		c-13.5-0.3-27-0.7-40.5-1C1772.4,886.8,1780.4,885,1788.8,885.7z M1758.9,894.2c0.8,5.3,1.7,10.7,2.5,16c-5.3-0.8-10.7-1.6-16-2.4
		C1749.1,902.6,1753.7,897.9,1758.9,894.2z M1737.3,906.3c-4.2-1.2-8.4-2.5-12.5-3.7c-1.2-2.4-3.4-4.7-5-6.8
		c-1.8-2.4-3.5-4.8-5.3-7.2C1723.5,892.1,1731.4,898.4,1737.3,906.3z M1706.8,886.3c-3.3,2.6-6.6,5.3-9.9,7.9
		c-5.2-1.6-10.4-3.1-15.6-4.7c2.4-1.2,4.9-2.1,7.7-2.8C1695,885.2,1701.1,885.2,1706.8,886.3z M1676.6,892.2
		c0.2,5.9,0.3,11.7,0.5,17.6c-6.3,5-12.5,9.9-18.8,14.9C1660.1,911.8,1666.1,899.5,1676.6,892.2z M1657.8,929.9
		c6.6,0.2,13.2,0.5,19.9,0.7c0.2,7.5,0.4,15,0.6,22.5c-5.7,0.2-11.4,0.4-17.1,0.5c-1.9-5.6-3.2-11.4-3.5-17.4
		C1657.7,934.1,1657.7,932,1657.8,929.9z M1685.3,991.6c11.1,2.7,22.2,5.4,33.3,8c-2.4,5.4-4.9,10.9-7.3,16.3
		C1702.1,1008.5,1693.3,1000.4,1685.3,991.6z M1713.8,1017.9c2.4-5.3,4.7-10.5,7.1-15.8c0,0,0,0,0,0c5.7,11,11.4,21.9,17,32.9
		c-4.3-2.7-8.6-5.6-12.7-8.5C1721.4,1023.7,1717.6,1020.9,1713.8,1017.9z M1750.9,1031.8c-1.3,0.9-2.9,1.7-4.4,2.6
		c4.6-8.2,9.1-16.5,13.7-24.7c5.2,1.3,10.4,2.5,15.5,3.8c-2.4,2-4.8,3.9-7.2,5.8C1762.8,1023.6,1756.9,1027.8,1750.9,1031.8z
		 M1780.1,1009.7c-1.3-8.5-2.7-17.1-4-25.6c7.9,2.1,15.9,4.3,23.8,6.4C1793.8,997.3,1787,1003.8,1780.1,1009.7z M1802.3,987.8
		c-8-2.1-16-4.3-24-6.4c12.5-4.1,25-8.3,37.4-12.6c0,0,0.1,0,0.1,0C1811.9,975.5,1807.3,981.8,1802.3,987.8z M1818.6,963.3
		c-1.1-11.1-2.3-22.2-3.4-33.2c0.2-0.4,0.5-0.8,0.7-1.2c0.1-0.2,0.2-0.5,0.2-0.8c3.1-1.5,6.2-2.9,9.4-4.4
		C1827.6,937.7,1824.6,951,1818.6,963.3z"/>
	<g>
		<path class="st2" d="M1530.7,906.6c-1.3-3-5.6-4.1-7.4-0.4c-2.5,5.1,7.4,11.9,7.4,11.9l0,0c0,0,2-1.4,3.9-3.3
			c-0.7-3.2-1.7-6.4-3.1-9.5C1531.1,905.7,1530.9,906.1,1530.7,906.6L1530.7,906.6z"/>
		<path class="st2" d="M1530.7,945.3L1530.7,945.3c-1.3-3-5.6-4.1-7.4-0.4c-1.8,3.7,2.9,8.3,5.6,10.6c1.8-4.2,3.3-8.5,4.5-12.7
			C1532.2,943.1,1531.2,944,1530.7,945.3z"/>
		<path class="st2" d="M1530.7,925.9L1530.7,925.9c-1.3-3-5.6-4.1-7.4-0.4c-2.5,5.1,7.4,11.9,7.4,11.9l0,0c0,0,2.4-1.7,4.6-4
			c0.4-3.4,0.6-6.8,0.4-10.1C1533.8,922.7,1531.5,923.9,1530.7,925.9z"/>
		<path class="st2" d="M1523.3,964.2c-0.5,0.9-0.5,1.9-0.2,2.9c1-1.7,1.9-3.5,2.8-5.2C1524.8,962.2,1523.9,962.9,1523.3,964.2z"/>
		<path class="st2" d="M1503.2,882c2,3.8,6.9,7.1,6.9,7.1s3.1-2.2,5.4-4.9c-4.1-3.1-8.5-5.2-13-6.4
			C1502.1,879.1,1502.4,880.6,1503.2,882z"/>
		<path class="st2" d="M1489.5,879.5c0,0,1.8-1.2,3.6-3c-2.3,0-4.5,0.1-6.8,0.5C1488,878.5,1489.5,879.5,1489.5,879.5L1489.5,879.5z
			"/>
		<path class="st2" d="M1489.5,918.1L1489.5,918.1c0,0,9.8-6.8,7.4-11.9c-1.8-3.7-6.1-2.7-7.4,0.4l0,0c-1.3-3-5.6-4.1-7.4-0.4
			C1479.6,911.3,1489.5,918.1,1489.5,918.1z"/>
		<path class="st2" d="M1510.1,908.5c0,0,9.8-6.8,7.4-11.9c-1.8-3.7-6.1-2.7-7.4,0.4c-1.3-3-5.6-4.1-7.4-0.4
			C1500.2,901.7,1510.1,908.5,1510.1,908.5z"/>
		<path class="st2" d="M1489.5,898.8L1489.5,898.8c0,0,9.8-6.8,7.4-11.9c-1.8-3.7-6.1-2.7-7.4,0.4l0,0c-1.3-3-5.6-4.1-7.4-0.4
			C1479.6,892,1489.5,898.8,1489.5,898.8z"/>
		<path class="st2" d="M1489.5,956.8L1489.5,956.8c0,0,9.8-6.8,7.4-11.9c-1.8-3.7-6.1-2.7-7.4,0.4l0,0c-1.3-3-5.6-4.1-7.4-0.4
			C1479.6,950,1489.5,956.8,1489.5,956.8z"/>
		<path class="st2" d="M1510.1,935.6c-1.3-3-5.6-4.1-7.4-0.4c-2.5,5.1,7.4,11.9,7.4,11.9s9.8-6.8,7.4-11.9
			C1515.6,931.5,1511.4,932.6,1510.1,935.6z"/>
		<path class="st2" d="M1489.5,937.5L1489.5,937.5c0,0,9.8-6.8,7.4-11.9c-1.8-3.7-6.1-2.7-7.4,0.4l0,0c-1.3-3-5.6-4.1-7.4-0.4
			C1479.6,930.7,1489.5,937.5,1489.5,937.5z"/>
		<path class="st2" d="M1502.7,993.2c-0.5,0.9-0.5,1.9-0.3,2.9c1.4-1.7,2.9-3.5,4.3-5.2C1505.2,990.6,1503.6,991.3,1502.7,993.2z"/>
		<path class="st2" d="M1489.5,995.4L1489.5,995.4c0,0,9.8-6.8,7.4-11.9c-1.8-3.7-6.1-2.7-7.4,0.4l0,0c-1.3-3-5.6-4.1-7.4-0.4
			C1479.6,988.7,1489.5,995.4,1489.5,995.4z"/>
		<path class="st2" d="M1510.1,974.2c-1.3-3-5.6-4.1-7.4-0.4c-2.5,5.1,7.4,11.9,7.4,11.9s0.6-0.4,1.4-1.1c2.2-3,4.3-6,6.3-9.1
			c0-0.6-0.1-1.2-0.4-1.8C1515.6,970.2,1511.4,971.2,1510.1,974.2z"/>
		<path class="st2" d="M1489.5,976.1L1489.5,976.1c0,0,9.8-6.8,7.4-11.9c-1.8-3.7-6.1-2.7-7.4,0.4l0,0c-1.3-3-5.6-4.1-7.4-0.4
			C1479.6,969.3,1489.5,976.1,1489.5,976.1z"/>
		<path class="st2" d="M1489.5,1003.2L1489.5,1003.2c-1.3-3-5.6-4.1-7.4-0.4c-1.7,3.4,2.2,7.6,4.9,10c3.2-3.2,6.5-6.7,9.7-10.2
			C1494.8,999.2,1490.7,1000.3,1489.5,1003.2z"/>
		<path class="st2" d="M1475.8,882c0.4-0.8,0.7-1.5,0.8-2.3c-3.9,1.6-7.7,3.8-11.2,6.5c1.8,1.7,3.5,2.9,3.5,2.9
			S1473.8,885.8,1475.8,882z"/>
		<path class="st2" d="M1468.9,908.5c0,0,9.8-6.8,7.4-11.9c-1.8-3.7-6.1-2.7-7.4,0.4c-1.3-3-5.6-4.1-7.4-0.4
			C1459.1,901.7,1468.9,908.5,1468.9,908.5z"/>
		<path class="st2" d="M1468.9,916.3c-1.3-3-5.6-4.1-7.4-0.4c-2.5,5.1,7.4,11.9,7.4,11.9s9.8-6.8,7.4-11.9
			C1474.5,912.2,1470.2,913.2,1468.9,916.3z"/>
		<path class="st2" d="M1510.1,916.3c-1.3-3-5.6-4.1-7.4-0.4c-2.5,5.1,7.4,11.9,7.4,11.9s9.8-6.8,7.4-11.9
			C1515.6,912.2,1511.3,913.2,1510.1,916.3z"/>
		<path class="st2" d="M1468.9,974.2c-1.3-3-5.6-4.1-7.4-0.4c-2.5,5.1,7.4,11.9,7.4,11.9s9.8-6.8,7.4-11.9
			C1474.5,970.2,1470.2,971.2,1468.9,974.2z"/>
		<path class="st2" d="M1468.9,993.6c-1.3-3-5.6-4.1-7.4-0.4c-2.5,5.1,7.4,11.9,7.4,11.9s9.8-6.8,7.4-11.9
			C1474.5,989.5,1470.2,990.5,1468.9,993.6z"/>
		<path class="st2" d="M1461.5,1031.9c-0.7,1.4-0.4,2.8,0.2,4.2c1.9-1.6,4-3.4,6.2-5.3C1466.2,1029,1463,1028.8,1461.5,1031.9z"/>
		<path class="st2" d="M1468.9,1012.9c-1.3-3-5.6-4.1-7.4-0.4c-2.5,5.1,7.4,11.9,7.4,11.9s9.8-6.8,7.4-11.9
			C1474.5,1008.8,1470.2,1009.9,1468.9,1012.9z"/>
		<path class="st2" d="M1448.3,1041.9L1448.3,1041.9c-1.2-2.9-5.3-4-7.2-0.7c4.5,3.6,7.2,5.6,7.2,5.6s2.7-2,7.2-5.6
			C1453.6,1037.9,1449.6,1039,1448.3,1041.9z"/>
		<path class="st2" d="M1427.7,889.1c0,0,1.7-1.2,3.5-2.9c-3.5-2.7-7.3-4.9-11.2-6.5c0.1,0.8,0.4,1.5,0.8,2.3
			C1422.9,885.8,1427.7,889.1,1427.7,889.1z"/>
		<path class="st2" d="M1407.1,879.5c0,0,1.5-1,3.1-2.5c-2.2-0.3-4.5-0.5-6.8-0.5C1405.4,878.3,1407.1,879.5,1407.1,879.5
			L1407.1,879.5z"/>
		<path class="st2" d="M1440.9,906.2c-2.5,5.1,7.4,11.9,7.4,11.9l0,0c0,0,9.8-6.8,7.4-11.9c-1.2-2.4-3.4-2.8-5.2-2
			c-0.8,1.6-1.5,3.2-2.2,4.8c-0.7-1.7-1.4-3.3-2.2-4.8C1444.4,903.4,1442.1,903.8,1440.9,906.2z"/>
		<path class="st2" d="M1407.1,918.1L1407.1,918.1c0,0,9.8-6.8,7.4-11.9c-1.8-3.7-6.1-2.7-7.4,0.4l0,0c-1.3-3-5.6-4.1-7.4-0.4
			C1397.3,911.3,1407.1,918.1,1407.1,918.1z"/>
		<path class="st2" d="M1427.7,908.5c0,0,9.8-6.8,7.4-11.9c-1.8-3.7-6.1-2.7-7.4,0.4c-1.3-3-5.6-4.1-7.4-0.4
			C1417.9,901.7,1427.7,908.5,1427.7,908.5z"/>
		<path class="st2" d="M1407.1,898.8L1407.1,898.8c0,0,9.8-6.8,7.4-11.9c-1.8-3.7-6.1-2.7-7.4,0.4l0,0c-1.3-3-5.6-4.1-7.4-0.4
			C1397.3,892,1407.1,898.8,1407.1,898.8z"/>
		<path class="st2" d="M1448.3,956.8L1448.3,956.8c0,0,9.8-6.8,7.4-11.9c-1.8-3.7-6.1-2.7-7.4,0.4l0,0c-1.3-3-5.6-4.1-7.4-0.4
			C1438.5,950,1448.3,956.8,1448.3,956.8z"/>
		<path class="st2" d="M1407.1,956.8L1407.1,956.8c0,0,9.8-6.8,7.4-11.9c-1.8-3.7-6.1-2.7-7.4,0.4l0,0c-1.3-3-5.6-4.1-7.4-0.4
			C1397.3,950,1407.1,956.8,1407.1,956.8z"/>
		<path class="st2" d="M1448.3,937.5L1448.3,937.5c0,0,9.8-6.8,7.4-11.9c-1.8-3.7-6.1-2.7-7.4,0.4l0,0c-1.3-3-5.6-4.1-7.4-0.4
			C1438.5,930.7,1448.3,937.5,1448.3,937.5z"/>
		<path class="st2" d="M1427.7,916.3c-1.3-3-5.6-4.1-7.4-0.4c-2.5,5.1,7.4,11.9,7.4,11.9s9.8-6.8,7.4-11.9
			C1433.3,912.2,1429,913.2,1427.7,916.3z"/>
		<path class="st2" d="M1407.1,937.5L1407.1,937.5c0,0,9.8-6.8,7.4-11.9c-1.8-3.7-6.1-2.7-7.4,0.4l0,0c-1.3-3-5.6-4.1-7.4-0.4
			C1397.3,930.7,1407.1,937.5,1407.1,937.5z"/>
		<path class="st2" d="M1448.3,995.4L1448.3,995.4c0,0,9.8-6.8,7.4-11.9c-1.8-3.7-6.1-2.7-7.4,0.4l0,0c-1.3-3-5.6-4.1-7.4-0.4
			C1438.5,988.7,1448.3,995.4,1448.3,995.4z"/>
		<path class="st2" d="M1407.1,995.4L1407.1,995.4c0,0,9.8-6.8,7.4-11.9c-1.8-3.7-6.1-2.7-7.4,0.4l0,0c-1.3-3-5.6-4.1-7.4-0.4
			C1397.3,988.7,1407.1,995.4,1407.1,995.4z"/>
		<path class="st2" d="M1448.3,976.1L1448.3,976.1c0,0,9.8-6.8,7.4-11.9c-1.8-3.7-6.1-2.7-7.4,0.4l0,0c-1.3-3-5.6-4.1-7.4-0.4
			C1438.5,969.3,1448.3,976.1,1448.3,976.1z"/>
		<path class="st2" d="M1427.7,974.2c-1.3-3-5.6-4.1-7.4-0.4c-2.5,5.1,7.4,11.9,7.4,11.9s9.8-6.8,7.4-11.9
			C1433.3,970.2,1429,971.2,1427.7,974.2z"/>
		<path class="st2" d="M1427.7,993.6c-1.3-3-5.6-4.1-7.4-0.4c-2.5,5.1,7.4,11.9,7.4,11.9s9.8-6.8,7.4-11.9
			C1433.3,989.5,1429,990.5,1427.7,993.6z"/>
		<path class="st2" d="M1407.1,976.1L1407.1,976.1c0,0,9.8-6.8,7.4-11.9c-1.8-3.7-6.1-2.7-7.4,0.4l0,0c-1.3-3-5.6-4.1-7.4-0.4
			C1397.3,969.3,1407.1,976.1,1407.1,976.1z"/>
		<path class="st2" d="M1448.3,1034.1L1448.3,1034.1c0,0,9.8-6.8,7.4-11.9c-1.8-3.7-6.1-2.7-7.4,0.4l0,0c-1.3-3-5.6-4.1-7.4-0.4
			C1438.5,1027.3,1448.3,1034.1,1448.3,1034.1z"/>
		<path class="st2" d="M1435.1,1031.9c-1.5-3.1-4.6-2.9-6.4-1.1c2.2,1.9,4.3,3.7,6.2,5.3C1435.5,1034.7,1435.8,1033.2,1435.1,1031.9
			z"/>
		<path class="st2" d="M1448.3,1014.8L1448.3,1014.8c0,0,9.8-6.8,7.4-11.9c-1.8-3.7-6.1-2.7-7.4,0.4l0,0c-1.3-3-5.6-4.1-7.4-0.4
			C1438.5,1008,1448.3,1014.8,1448.3,1014.8z"/>
		<path class="st2" d="M1427.7,1012.9c-1.3-3-5.6-4.1-7.4-0.4c-2.5,5.1,7.4,11.9,7.4,11.9s9.8-6.8,7.4-11.9
			C1433.3,1008.8,1429,1009.9,1427.7,1012.9z"/>
		<path class="st2" d="M1414.5,1002.9c-1.8-3.7-6.1-2.7-7.4,0.4l0,0c-1.2-3-5.3-4-7.2-0.6c3.2,3.6,6.5,7,9.7,10.2
			C1412.3,1010.5,1416.2,1006.3,1414.5,1002.9z"/>
		<path class="st2" d="M1386.6,889.1c0,0,4.9-3.4,6.9-7.1c0.8-1.4,1.1-2.9,0.7-4.2c-4.5,1.2-8.9,3.3-13,6.4
			C1383.5,887,1386.6,889.1,1386.6,889.1z"/>
		<path class="st2" d="M1366,918.1L1366,918.1c0,0,9.8-6.8,7.4-11.9c-1.8-3.7-6.1-2.7-7.4,0.4l0,0c-0.2-0.5-0.5-0.9-0.8-1.3
			c-1.4,3.1-2.4,6.3-3.1,9.5C1364,916.8,1366,918.1,1366,918.1z"/>
		<path class="st2" d="M1386.6,908.5c0,0,9.8-6.8,7.4-11.9c-1.8-3.7-6.1-2.7-7.4,0.4c-1.3-3-5.6-4.1-7.4-0.4
			C1376.7,901.7,1386.6,908.5,1386.6,908.5z"/>
		<path class="st2" d="M1373.4,944.9c-1.8-3.7-6.1-2.7-7.4,0.4l0,0c-0.5-1.3-1.6-2.2-2.7-2.5c1.1,4.3,2.6,8.5,4.5,12.7
			C1370.4,953.2,1375.2,948.6,1373.4,944.9z"/>
		<path class="st2" d="M1386.6,916.3c-1.3-3-5.6-4.1-7.4-0.4c-2.5,5.1,7.4,11.9,7.4,11.9s9.8-6.8,7.4-11.9
			C1392.1,912.2,1387.8,913.2,1386.6,916.3z"/>
		<path class="st2" d="M1468.9,935.6c-1.3-3-5.6-4.1-7.4-0.4c-2.5,5.1,7.4,11.9,7.4,11.9s9.8-6.8,7.4-11.9
			C1474.5,931.5,1470.2,932.6,1468.9,935.6z"/>
		<path class="st2" d="M1427.7,935.6c-1.3-3-5.6-4.1-7.4-0.4c-2.5,5.1,7.4,11.9,7.4,11.9s9.8-6.8,7.4-11.9
			C1433.3,931.5,1429,932.6,1427.7,935.6z"/>
		<path class="st2" d="M1510.1,954.9c-1.3-3-5.6-4.1-7.4-0.4c-2.5,5.1,7.4,11.9,7.4,11.9s9.8-6.8,7.4-11.9
			C1515.6,950.8,1511.4,951.9,1510.1,954.9z"/>
		<path class="st2" d="M1468.9,954.9c-1.3-3-5.6-4.1-7.4-0.4c-2.5,5.1,7.4,11.9,7.4,11.9s9.8-6.8,7.4-11.9
			C1474.5,950.8,1470.2,951.9,1468.9,954.9z"/>
		<path class="st2" d="M1427.7,954.9c-1.3-3-5.6-4.1-7.4-0.4c-2.5,5.1,7.4,11.9,7.4,11.9s9.8-6.8,7.4-11.9
			C1433.3,950.8,1429,951.9,1427.7,954.9z"/>
		<path class="st2" d="M1386.6,954.9c-1.3-3-5.6-4.1-7.4-0.4c-2.5,5.1,7.4,11.9,7.4,11.9s9.8-6.8,7.4-11.9
			C1392.1,950.8,1387.8,951.9,1386.6,954.9z"/>
		<path class="st2" d="M1386.6,935.6c-1.3-3-5.6-4.1-7.4-0.4c-2.5,5.1,7.4,11.9,7.4,11.9s9.8-6.8,7.4-11.9
			C1392.1,931.5,1387.8,932.6,1386.6,935.6z"/>
		<path class="st2" d="M1366,937.5L1366,937.5c0,0,9.8-6.8,7.4-11.9c-1.8-3.7-6.1-2.7-7.4,0.4l0,0c-0.9-2-3.1-3.2-5-2.6
			c-0.2,3.3,0,6.7,0.4,10.1C1363.5,935.8,1366,937.5,1366,937.5z"/>
		<path class="st2" d="M1393.9,993.2c-0.9-1.9-2.5-2.6-4-2.3c1.4,1.8,2.8,3.5,4.3,5.2C1394.4,995.1,1394.4,994.1,1393.9,993.2z"/>
		<path class="st2" d="M1393.9,973.9c-1.8-3.7-6.1-2.7-7.4,0.4c-1.3-3-5.6-4.1-7.4-0.4c-0.3,0.6-0.4,1.2-0.4,1.8
			c2,3.1,4.1,6.1,6.3,9.1c0.8,0.7,1.4,1.1,1.4,1.1S1396.4,979,1393.9,973.9z"/>
		<path class="st2" d="M1373.4,964.2c-0.6-1.3-1.6-2-2.5-2.3c0.9,1.7,1.8,3.5,2.8,5.2C1373.8,966.2,1373.8,965.2,1373.4,964.2z"/>
	</g>
	<path class="st2" d="M346.9,137.6c-16-45.2-66.3-41.8-84.6-7.5c-18.2-34.3-68.6-37.7-84.6,7.5c-20.5,57.8,76.7,117.1,84.6,121.8
		C270.2,254.7,367.4,195.4,346.9,137.6z"/>
	<g>
		<path class="st0" d="M313.5,918.2c-6.8-18.6-21.6-33.6-42.3-34.5c-17.2-0.8-33,8.6-42.3,22.6c-9.4-14.1-25.5-23.6-42.9-22.6
			c-20.2,1.2-35.3,16-41.7,34.5c-13.5,38.5,22.1,74.8,49.1,96.9c10.7,8.8,22.1,17,34,24.1c0.9,0.5,2,0.5,2.8,0
			c13.3-7.9,25.9-17.2,37.6-27.1c18.2-15.4,36.2-34,44.5-56.7C316.9,943.3,317.7,930.4,313.5,918.2z M290.2,982
			c-13.6,16.6-30.3,30.5-47.8,42.7c-4.4,3.1-8.8,6-13.4,8.8c-22.5-13.6-44.1-30.7-60.8-51c-11-13.3-20.9-29.7-20.9-47.6
			c0-18.4,11.7-38.2,29.8-43.9c19.7-6.2,40,4.6,49.5,22.1c1,1.8,3.9,1.8,4.9,0c7.8-14.2,22.3-24.1,38.7-23.9
			c18.5,0.3,31.9,13.8,38,30.4C315.8,942.3,304.4,964.7,290.2,982z"/>
		<path class="st0" d="M280.6,935.4c-4.3-11.5-13.3-20.8-26.1-21.4c-10.2-0.5-19.6,4.7-25.5,12.7c-5.7-7.7-14.6-12.8-24.4-12.8
			c-12.2,0.1-21.9,8.4-26.4,19.3c-9.9,23.9,11.2,46.6,28.2,60.7c6.7,5.5,13.7,10.7,21.2,15.1c0.9,0.5,2,0.5,2.8,0
			c11.8-7,23-15.7,32.5-25.5C275.1,970.9,286.6,953.6,280.6,935.4z M256.2,982.2c-8.2,8-17.5,15.1-27.3,21.1
			c-17.2-10.5-35.6-24.9-44.2-43.3c-5.9-12.6-4.1-29,8.5-37.1c12-7.7,26.8-1.3,33.3,10.4c1,1.8,3.8,1.8,4.9,0
			c4.5-8,12.5-13.8,22-13.7c10.7,0.1,18.2,7.8,21.8,17.4C281,954.3,268.1,970.7,256.2,982.2z"/>
		<path class="st0" d="M247.5,952c-3.5-9.9-14.6-9.2-18.6-1.6c-4-7.5-15-8.3-18.6,1.6c-4.5,12.7,16.8,25.7,18.6,26.7
			C230.7,977.6,252,964.6,247.5,952z"/>
	</g>
	<g>
		<g>
			<path class="st2" d="M551.6,632l-2.9-5.4c-0.6-1.2-1.3-2.4-2.1-3.5l3.7-2.4c0.2-0.4,0.5-0.8,0.7-1.2l0.5,0.3l0.5-0.3
				c0.2,0.4,0.5,0.8,0.7,1.2l3.7,2.4c-0.7,1.1-1.4,2.3-2.1,3.5L551.6,632z"/>
		</g>
		<g>
			<path class="st2" d="M538.8,745.2c-2.4-1.6-4.8-3.3-7.2-5l3.8-5.3c2.3,1.7,4.7,3.3,7,4.9L538.8,745.2z M524.6,735.1
				c-2.3-1.8-4.6-3.6-6.9-5.4l4.1-5.1c2.2,1.8,4.4,3.5,6.7,5.3L524.6,735.1z M511.1,724.1c-2.2-1.9-4.4-3.9-6.5-5.8l4.4-4.8
				c2,1.9,4.2,3.8,6.4,5.7L511.1,724.1z M498.2,712.3c-2.1-2.1-4.2-4.2-6.1-6.3l4.8-4.4c1.8,2,3.8,4.1,5.9,6.1L498.2,712.3z
				 M486.4,699.3c-1.9-2.3-3.7-4.7-5.4-7l5.3-3.8c1.6,2.2,3.3,4.4,5.2,6.7L486.4,699.3z M476,685c-1.6-2.6-3.1-5.2-4.4-7.8l5.8-2.9
				c1.2,2.4,2.6,4.8,4.1,7.3L476,685z M468.1,669c-1.1-2.9-1.9-5.8-2.6-8.7l6.4-1.4c0.6,2.6,1.4,5.2,2.3,7.8L468.1,669z
				 M464.2,651.3c-0.1-1-0.1-2.1-0.1-3.2c0-2,0.1-4,0.4-6l6.5,0.8c-0.2,1.7-0.3,3.5-0.3,5.2c0,0.9,0,1.8,0.1,2.8L464.2,651.3z
				 M472.6,635l-6.2-1.9c0.2-0.6,0.4-1.3,0.6-1.9c0.8-2.3,1.7-4.5,2.7-6.5l5.9,2.8c-0.9,1.9-1.7,3.8-2.4,5.9
				C473,633.9,472.8,634.5,472.6,635z M479.7,620.5l-5.4-3.7c1.8-2.6,3.8-5,5.9-7.1l4.6,4.6C482.9,616.1,481.2,618.2,479.7,620.5z
				 M541.7,616.8c-1.8-2-3.8-3.8-6-5.3l3.9-5.2c2.5,1.8,4.8,3.9,6.9,6.1L541.7,616.8z M490.9,609.3l-3.6-5.4
				c2.6-1.7,5.4-3.1,8.3-4.2l2.3,6.1C495.5,606.6,493.2,607.8,490.9,609.3z M528.9,607.3c-2.4-1.2-4.9-2.1-7.5-2.8l1.7-6.3
				c3,0.8,5.9,1.9,8.7,3.2L528.9,607.3z M505.6,603.7l-1-6.4c3-0.5,6.2-0.6,9.3-0.4l-0.4,6.5C510.9,603.1,508.2,603.3,505.6,603.7z"
				/>
		</g>
		<g>
			<path class="st2" d="M551.6,753.3l-1.7-1c-0.7-0.4-2-1.2-3.8-2.3l3.5-5.5c0.8,0.5,1.4,0.9,2,1.2c0.6-0.3,1.2-0.8,2-1.2l3.5,5.5
				c-1.8,1.1-3.1,1.9-3.8,2.3L551.6,753.3z"/>
		</g>
		<g>
			<path class="st2" d="M564.3,745.2l-3.6-5.4c2.3-1.6,4.7-3.2,7-4.9l3.8,5.3C569.1,741.9,566.7,743.6,564.3,745.2z M578.5,735.1
				l-3.9-5.2c2.3-1.7,4.5-3.5,6.7-5.3l4.1,5.1C583.1,731.5,580.8,733.3,578.5,735.1z M592.1,724.1l-4.3-4.9c2.2-1.9,4.3-3.8,6.4-5.7
				l4.4,4.8C596.5,720.2,594.3,722.2,592.1,724.1z M604.9,712.3l-4.6-4.6c2-2,4-4.1,5.9-6.1l4.8,4.4
				C609.1,708,607,710.2,604.9,712.3z M616.8,699.3l-5-4.1c1.8-2.2,3.6-4.5,5.2-6.7l5.3,3.8C620.5,694.6,618.7,697,616.8,699.3z
				 M627.1,685l-5.5-3.4c1.5-2.4,2.9-4.9,4.1-7.3l5.8,2.9C630.2,679.8,628.7,682.4,627.1,685z M635,669l-6.1-2.3
				c1-2.6,1.7-5.3,2.3-7.8l6.4,1.4C637,663.2,636.1,666.1,635,669z M638.9,651.3l-6.5-0.4c0.1-0.9,0.1-1.8,0.1-2.8
				c0-1.8-0.1-3.5-0.3-5.3l6.5-0.8c0.2,2,0.4,4,0.4,6C639,649.2,638.9,650.2,638.9,651.3z M630.5,635c-0.2-0.6-0.4-1.1-0.6-1.7
				c-0.7-2-1.5-4-2.4-5.9l5.9-2.8c1,2.1,1.9,4.3,2.7,6.5c0.2,0.6,0.4,1.3,0.6,1.9L630.5,635z M623.4,620.5c-1.6-2.2-3.3-4.3-5.1-6.2
				l4.6-4.6c2.1,2.1,4.1,4.5,5.9,7.1L623.4,620.5z M561.4,616.8l-4.8-4.5c2.1-2.2,4.4-4.3,6.9-6.1l3.9,5.2
				C565.3,613,563.3,614.8,561.4,616.8z M612.2,609.3c-2.2-1.5-4.6-2.7-7-3.6l2.3-6.1c2.9,1.1,5.7,2.5,8.3,4.2L612.2,609.3z
				 M574.3,607.3l-2.8-5.9c2.8-1.3,5.7-2.4,8.6-3.2l1.7,6.3C579.2,605.2,576.7,606.2,574.3,607.3z M597.5,603.7
				c-2.6-0.4-5.3-0.5-7.9-0.4l-0.4-6.5c3.1-0.2,6.2,0,9.3,0.4L597.5,603.7z"/>
		</g>
	</g>
	<g>
		<path class="st2" d="M1560.1,630.9c-16-45.2-66.3-41.8-84.6-7.5c-18.2-34.3-68.6-37.7-84.6,7.5c-20.5,57.8,76.7,117.1,84.6,121.8
			C1483.4,748,1580.6,688.7,1560.1,630.9z M1549.9,626.9c0.9,1.9,1.8,3.9,2.6,6.1c0.2,0.5,0.4,1,0.5,1.6l-3.2,1
			c-0.2-0.5-0.3-1-0.5-1.5c-0.7-2-1.5-3.9-2.4-5.7L1549.9,626.9z M1475,634.1c0.2,0.3,0.4,0.6,0.5,0.9c0.2-0.3,0.4-0.6,0.5-0.9
			l2.9,1.8c-0.7,1.1-1.3,2.2-1.9,3.3l-1.5,2.8l-1.5-2.8c-0.6-1.1-1.2-2.2-1.9-3.3L1475,634.1z M1398.7,632.9
			c0.8-2.1,1.6-4.2,2.6-6.1l3,1.5c-0.9,1.8-1.7,3.7-2.4,5.7c-0.2,0.5-0.3,1-0.5,1.4l-3.2-1C1398.3,634,1398.5,633.4,1398.7,632.9z
			 M1396,648.1c0-1.9,0.1-3.7,0.3-5.6l3.4,0.4c-0.2,1.7-0.3,3.4-0.3,5.2c0,0.8,0,1.7,0.1,2.5l-3.4,0.2
			C1396.1,649.9,1396,649,1396,648.1z M1399.6,666.9c-1-2.6-1.7-5.3-2.3-7.9l3.3-0.7c0.5,2.4,1.3,4.9,2.2,7.4L1399.6,666.9z
			 M1406.8,681.4c-1.5-2.4-2.8-4.8-4-7.1l3-1.5c1.1,2.2,2.4,4.5,3.8,6.8L1406.8,681.4z M1408.3,621.9l-2.7-2.1
			c1.8-2.3,3.7-4.3,5.9-6l2.1,2.7C1411.7,618,1409.9,619.8,1408.3,621.9z M1416.2,694.6c-1.8-2.1-3.4-4.3-5-6.4l2.7-2
			c1.5,2.1,3.1,4.1,4.8,6.2L1416.2,694.6z M1418.8,609.6c2.6-1.1,5.3-1.8,8.1-2.1l0.4,3.4c-2.5,0.3-5,1-7.3,1.9L1418.8,609.6z
			 M1427.1,706.5c-1.9-1.9-3.8-3.9-5.6-5.8l2.5-2.3c1.7,1.9,3.6,3.8,5.5,5.7L1427.1,706.5z M1438.9,717.4c-2.1-1.8-4.1-3.6-6-5.3
			l2.3-2.5c1.9,1.7,3.9,3.5,5.9,5.3L1438.9,717.4z M1442.4,612.4c-2.5-0.8-5-1.3-7.5-1.6l0.4-3.4c2.7,0.3,5.4,0.8,8.1,1.7
			L1442.4,612.4z M1451.5,727.5c-2.1-1.6-4.3-3.3-6.3-5l2.1-2.6c2,1.6,4.1,3.3,6.3,4.9L1451.5,727.5z M1449.5,615.2l1.5-3
			c2.4,1.2,4.8,2.6,7.1,4.2l-1.9,2.8C1454,617.7,1451.8,616.3,1449.5,615.2z M1464.5,736.8c-2.2-1.5-4.4-3-6.6-4.6l2-2.8
			c2.1,1.5,4.3,3.1,6.5,4.5L1464.5,736.8z M1467.6,629.6c-1.6-2-3.5-3.9-5.4-5.6l2.3-2.5c2,1.8,3.9,3.8,5.7,5.9L1467.6,629.6z
			 M1476.4,743.3l-0.9,0.5l-0.9-0.5c-0.6-0.4-1.8-1.1-3.4-2.1l1.8-2.9c1,0.6,1.8,1.1,2.5,1.5c0.6-0.4,1.5-0.9,2.5-1.5l1.8,2.9
			C1478.2,742.2,1477,742.9,1476.4,743.3z M1480.9,627.4c1.7-2.1,3.7-4.1,5.7-5.9l2.3,2.5c-1.9,1.7-3.7,3.6-5.4,5.6L1480.9,627.4z
			 M1486.5,736.8l-1.9-2.8c2.2-1.5,4.4-3,6.5-4.5l2,2.8C1491,733.8,1488.7,735.4,1486.5,736.8z M1493,616.4c2.3-1.6,4.7-3,7.1-4.2
			l1.5,3c-2.3,1.1-4.5,2.4-6.7,3.9L1493,616.4z M1499.6,727.5l-2-2.7c2.1-1.6,4.2-3.3,6.3-4.9l2.1,2.6
			C1503.9,724.2,1501.8,725.9,1499.6,727.5z M1507.7,609.1c2.7-0.8,5.5-1.4,8.1-1.7l0.4,3.4c-2.4,0.3-5,0.8-7.5,1.6L1507.7,609.1z
			 M1512.1,717.4l-2.2-2.6c2-1.7,4-3.5,5.9-5.3l2.3,2.5C1516.2,713.8,1514.2,715.6,1512.1,717.4z M1523.9,706.5l-2.4-2.4
			c1.9-1.9,3.7-3.8,5.5-5.7l2.5,2.3C1527.8,702.6,1525.9,704.6,1523.9,706.5z M1523.8,610.8l0.4-3.4c2.8,0.4,5.6,1.1,8.1,2.1
			l-1.3,3.1C1528.7,611.8,1526.3,611.2,1523.8,610.8z M1534.8,694.6l-2.6-2.2c1.7-2.1,3.3-4.2,4.8-6.2l2.7,2
			C1538.2,690.3,1536.6,692.5,1534.8,694.6z M1537.5,616.5l2.1-2.7c2.1,1.7,4.1,3.7,5.9,6l-2.7,2.1
			C1541.2,619.8,1539.4,618,1537.5,616.5z M1544.3,681.5l-2.9-1.8c1.4-2.3,2.7-4.6,3.8-6.8l3,1.5
			C1547.1,676.7,1545.8,679.1,1544.3,681.5z M1551.5,666.9l-3.2-1.2c0.9-2.5,1.6-5,2.2-7.4l3.3,0.7
			C1553.2,661.6,1552.5,664.2,1551.5,666.9z M1554.9,650.9l-3.4-0.2c0-0.8,0.1-1.7,0.1-2.5c0-1.7-0.1-3.5-0.3-5.2l3.4-0.4
			c0.2,1.8,0.3,3.7,0.3,5.6C1555,649,1555,649.9,1554.9,650.9z"/>
	</g>
	<path class="st2" d="M621.6,911.2c-5-15.1-19.3-30.9-39.3-30.1c-11.6,0.5-21.4,6.2-29.6,12.9c-3.9,3.2-7.7,6.6-11.4,10
		c-3.4-11.9-9.8-23.2-22.1-28.9c-16.6-7.7-38.1-3.5-51.2,7.7c-15,12.8-19.4,32.2-18.2,49.7c1.4,20,9.2,39.1,19.8,56.8
		c12.3,20.4,28.3,38.8,42.5,58.2c1.5,2,3.3,3.1,5.4,3.7c3.4,1.3,7.5,1.1,10.9-1.9c14.7-13,29.6-25.7,42.8-39.9
		c14-15,30.9-29,42.2-45.6C624.3,948.1,627.4,928.8,621.6,911.2z M600.6,945.9c-3.5,8.8-10.4,16.5-17.3,23.5
		c-7.8,7.9-15.6,15.8-23.2,23.8c-11.7,12.5-24.4,24-37.2,35.5c-23.7-30.6-51.8-62.5-52.4-100.4c-0.2-15,5.1-34.9,24.9-38.7
		c22.9-4.4,27.6,20.9,28.9,35.1c0.6,6.8,11.6,12.9,17.7,6.3c7.2-7.8,14.9-15.3,23.1-22.3c5.5-4.7,13.8-11.9,22.4-9.1
		c8.4,2.8,12.8,11.5,14.8,18.4C604.9,927.2,604.1,936.9,600.6,945.9z"/>
	<g>
		<path class="st2" d="M262.3,631.3c-14.9-28.1-51.3-35.4-72.8-12.5c-0.9,1.8-1.7,3.7-2.4,5.8c-7.5,21.1,2.1,45.1,28.5,71.4
			c18.7,18.6,40.4,32.5,46.7,36.4c6.3-3.9,28-17.8,46.7-36.4c26.4-26.3,36-50.3,28.5-71.4c-0.7-2-1.5-3.9-2.4-5.8
			C313.6,595.9,277.3,603.3,262.3,631.3z"/>
		<path class="st2" d="M346.9,638.8c-0.3-0.7-0.5-1.5-0.8-2.2c2.3,50.1-72.9,96.5-82.2,102l-1.6,0.9l-1.6-0.9
			c-9.3-5.5-84.4-51.9-82.2-102c-0.3,0.7-0.6,1.4-0.8,2.2c-20.5,57.8,76.7,117.1,84.6,121.8C270.2,755.9,367.4,696.6,346.9,638.8z"
			/>
		<path class="st2" d="M221,595.7c0.9-0.1,1.8-0.1,2.8-0.1c14.6,0,28.5,8.6,35.8,22.5l2.7,5.1l2.7-5.1c7.8-14.7,23-23.5,38.6-22.4
			c13.6,1,24.8,9.3,31.5,23.1c4.4,4.7,8.1,10.6,11,17.8c-0.2-4.7-1.1-9.4-2.7-14.1c-6.9-19.6-21.2-31.6-39.2-32.9
			c-16.4-1.2-32.3,6.9-41.8,21.1c-9.5-14.1-25.4-22.3-41.8-21.1c-18,1.3-32.3,13.3-39.2,32.9c-1.7,4.7-2.5,9.4-2.7,14.1
			c2.8-7.2,6.6-13.1,11-17.8C196.2,605.1,207.4,596.7,221,595.7z"/>
	</g>
	<g>
		<path class="st2" d="M929.8,137.6c-16-45.2-66.3-41.8-84.6-7.5c-18.2-34.3-68.6-37.7-84.6,7.5c-20.5,57.8,76.7,117.1,84.6,121.8
			C853,254.7,950.3,195.4,929.8,137.6z M822.3,230.4c-27.4-15.2-50.4-44.5-55.4-76c-1.1-6.9,9.4-9.8,10.5-2.9
			c4.6,29,25.1,55.5,50.4,69.6C833.9,224.4,828.4,233.8,822.3,230.4z M915.5,153.6c-2.5-14.1-10.6-32.1-26.7-34.7
			c-3.5-0.5-2-5.8,1.4-5.2c17.9,2.8,27.7,22.6,30.5,38.5C921.3,155.6,916,157.1,915.5,153.6z"/>
	</g>
	<path class="st2" d="M1843.7,1146.9c-10.9-92.1-127.4,1.5-51-0.2c-20.5,13.6-36.6-25.4-59.3-28c-48.6-13.1-80.9,29.8-55.8,70.7
		c35.3,38,65.4,24.4,92.1,69.8c5.2,8.7,4.8,2.2,8.9-4.9C1807.5,1208.9,1845.2,1205,1843.7,1146.9z M1708.4,1201.3
		c-48.8-28.8-19.8-80.7-10.2-70.8c-23.1,18.4-12.4,56,11.1,70.9C1708.9,1201.7,1708.6,1201.4,1708.4,1201.3z M1709.7,1201.8
		c0.2,0,0.3,0,0.5,0l0,0.1l0.1,0.1C1710.1,1202,1709.9,1201.9,1709.7,1201.8z M1712.7,1127.2c-8.3,5.4-10.5-7.3,1.4-3.6
		C1714.6,1124.9,1715.2,1126.2,1712.7,1127.2z M1718.3,1204.9c0,0,0,0,0.1,0C1718.4,1204.9,1718.3,1204.9,1718.3,1204.9z
		 M1778.9,1127.8c0,0.1-0.1,0.3-0.1,0.4c-0.4,0-0.5-0.2-0.6-0.5l0,0c0.2-0.2,0.3-0.4,0.5-0.6
		C1778.7,1127.4,1778.8,1127.6,1778.9,1127.8c0.1,0,0.2,0.1,0.3,0C1779.1,1127.8,1779,1127.8,1778.9,1127.8z M1780.4,1126.3
		c-0.3,0.3-0.6,0.6-0.9,0.9c-0.4,0-0.5-0.3-0.6-0.6c0.2-0.2,0.3-0.3,0.5-0.5c0.2-0.5,0.4-0.9,0.8-1.2c-0.3,0.3-0.5,0.8-0.8,1.2
		C1779.8,1126.1,1780.2,1125.8,1780.4,1126.3C1780.4,1126.3,1780.4,1126.3,1780.4,1126.3L1780.4,1126.3z M1805.1,1112.5
		c-0.4-0.3-0.7-0.1-0.9,0.3c-7.6,2.2-15.7,8.4-23.8,13.6c0,0,0,0,0,0c-0.7-0.9,0.5-1.2,0.5-1.8c3.6-3,8.9-8,15.1-10.7
		c0.4,0.2,0.7,0.1,1-0.3c1.4-0.4,2.9-0.9,4.3-1.3c0.8,0.2,1.4-0.1,2-0.6c0.7-0.1,1.4-0.1,2.1-0.2c0.5,0.3,1,0.3,1.5,0
		c0.8,0.1,1.6,0.1,2.5,0.2c0,0.2,0.1,0.4,0.1,0.6C1808.1,1112.4,1806.6,1112,1805.1,1112.5z"/>
	<path class="st2" d="M1227.7,892.7c-10.9-14.7-56.7,4.8-18.2,11.8c-5.3,6.4-12.8,9.7-19.6,14.3c-5-33.8-48.4-14.4-57.2,10.6
		c-28.8-58.9-94.2-10.4-30.9,56.5c-12.3,5.8-2.1,11.2-28.5,4.2c-19.1,0.1-0.3,10.1,13.8,9.7c-2.9,3.1-31.4-5.2-20.1,7.7
		c-4.6-1.1-17.3,9.2-0.7,7.8c-2.4-1.2-1.2,32,6.9,16.4c0.2,0,0.4,0,0.7,0c0.3,1.9,1.4,3.1,3.3,3.3c0.2,0.2,0.4,0.2,0.6,0
		c0.2,0,0.4-0.1,0.5-0.1c0.3,0.1,0.6,0.1,0.7-0.3c3.7-0.6,0.9-13,6.9-23.3c-4,19.4,6.7,27.5,7.5-0.7c13,14.8,0.1-18.7,13.9-18.4
		c15.1,13.3,26.3,46.2,48.1,14.7c58.1-93.5,11.9-65.8,55.5-93.7c10.1-9.9,0,2.4,2.9,13.2C1228.5,941.5,1239.9,892.6,1227.7,892.7z
		 M1074.8,1023.8c-0.1,0-0.3,0-0.4,0c-0.2,0.2-0.2,0.4-0.2,0.6c1.1-1.8-0.7-3.2,2.3-7.7C1076.1,1019.2,1075.6,1021.5,1074.8,1023.8z
		 M1144.6,925.5c3.6-5.5,8.3-16.7,23.4-16.3c-5,7.2-2.5-8.3-26.5,22.2C1141.8,929,1143.6,927.5,1144.6,925.5z M1128.6,935.9l0,0.1
		c7.4,4.1-3.5,18.7-8.2,31.3c-0.2,0.1-0.5,0.2-0.7-0.1C1122.5,957.4,1126.5,947.9,1128.6,935.9L1128.6,935.9z M1087.7,936.7
		c-6.4-11.3,19.5-39.1,21.1-19.5C1098.5,917,1097.5,931.3,1087.7,936.7z M1097.3,956.7c-14.7-18-0.1-18.4,10.4-31.7
		C1105,936,1100.3,946,1097.3,956.7z M1102.7,958.2c1.6-2.7,2.2-5.8,3.3-8.9c0.9,3.1,2.2,4.9-2.9,9.2
		C1103,958.4,1102.8,958.3,1102.7,958.2z M1113.4,968.9c-1.3,3.4-1.3,7.2-3.1,10.6c-3.9-5.5-10.3-12.1-0.3-18.8
		C1110.4,962.3,1111.5,963.1,1113.4,968.9z M1111.9,948.6c-1.8-9.6,0.2-18.4,3.7-27.3c4.4,4.5,8.7,8.9,12.7,13.8
		C1123.2,932.7,1119.2,938.9,1111.9,948.6z M1119,968.9c0,0.1,0,0.3,0,0.4l0,0C1119.1,969.2,1119,969.1,1119,968.9z M1114.1,956.7
		c0.4-1.9,1.9-2.3,4.6-6.4c-0.7,3.5-1.5,7-2.8,10.6C1115,959.4,1114.6,958,1114.1,956.7z M1123.1,991.3c-18.7,3.5,23.3-50,30.4-63.8
		C1143.1,947.9,1135.2,969.2,1123.1,991.3z M1142.6,1006.2C1142.6,1006.2,1142.6,1006.2,1142.6,1006.2L1142.6,1006.2L1142.6,1006.2z
		 M1147.1,1002.5c-1.2,0.5-1.2,2.5-4.5,3.7c2.9-3.4,7.4-11.3,12.5-15.3C1152.9,995,1151,999.3,1147.1,1002.5z M1149.9,980.7
		c0-0.1,0-0.2,0-0.2C1150.2,980.6,1150,980.7,1149.9,980.7z M1153.2,976.5c-0.8,1.4-1.8,2.7-3.1,3.7c2.3-4.7,4.7-9.3,7.6-13.7l0,0
		c0.2,0,0.5,0.1,0.7,0.1C1156.7,969.9,1155,973.2,1153.2,976.5z M1159.2,954.3c-5.8,16.9-26.3,34.3-23.8,53.5
		c-0.6-3.8-12.6-8.5-5.5-13.8C1141.7,982.8,1147.2,961.9,1159.2,954.3z M1169.7,943.6c-0.7,1.7-1.2,3.4-2.3,4.9c-0.2,0-0.3,0-0.5,0
		c-0.2,0.2-0.3,0.5-0.5,0.7c0.9-1.4,0.6-2.3,2.8-5.7C1169.4,943.5,1169.5,943.5,1169.7,943.6c0.6-0.8,1.2-1.7,1.6-2.5
		C1170.9,941.9,1170.3,942.8,1169.7,943.6z M1166.5,921.1c-6.8,8.6-9.9,23.1-20.1,31.9c7.4-12.6,12-30.7,26.2-40.6
		C1170.3,915.1,1168.9,918.5,1166.5,921.1z M1181.5,919.2c-1.1,1,2.8,7.2-3.1,5.4C1179.7,922.7,1180.2,920.8,1181.5,919.2z
		 M1181.2,934.9c-0.5,3.8,0,5.5-5.8,9.2C1176.2,943.5,1179.5,930.8,1181.2,934.9z M1216.1,908.8c0.1,0-0.2-0.1,0-0.3
		c0,0.1,0.1,0.1,0.1,0.2C1216.2,908.7,1216.1,908.8,1216.1,908.8z M1221.3,922.6c-0.5-2.3,0.8-3.7,3.4-9.3
		C1223.8,916.7,1223.2,919.9,1221.3,922.6z"/>
	<path class="st2" d="M766.9,1192.3c10.8,28.4,44.8,73.5,69.5,72.2c0.2,0,0.4,0,0.5-0.1c44.9-14.4,87.2-51.4,94.7-102.5
		c10-51.1-62.4-86.6-83.6-1.8c-0.5,1.9-3.1,1.9-3.6,0.1C819.1,1070.4,729.2,1097,766.9,1192.3z M834.2,1254.9
		c1.8-0.6,3.8-0.8,5.8-1.2C838.4,1256.1,836.3,1255.6,834.2,1254.9z M863.6,1231.5c-23.7,19.1,14.9-18.8,18.1-29.6
		c0-0.1,0.1-0.2,0.1-0.3c16.1-30.3,23.8-84.7-12.9-41.5c-1.4,1.7-4,0-3.2-2C894.9,1091.2,941.2,1162.8,863.6,1231.5z M868.8,1210.7
		C868.8,1210.8,868.8,1210.8,868.8,1210.7c3.6-4.4,5.1-7.7,9.4-16.3c-1.6,4.1-4.1,11.5-9.1,16.7c-0.1,0.2-0.4,0.5-0.3,0.7
		c0,0,0,0,0,0C868.7,1211.5,868.7,1211.2,868.8,1210.7C868.8,1210.8,868.8,1210.8,868.8,1210.7z M868.9,1211.8
		c-0.1-0.1-0.3-0.1-0.4-0.2C868.8,1211.4,868.8,1211.7,868.9,1211.8z M860.7,1150.7c40-74.8,92.1,4.6,31.8,62.9
		c-1.7,1.6-4.2-0.6-2.8-2.5c56.5-76.6-8.3-122.5-33.2-44.5c-0.2,0-0.4,0-0.6,0.1c1.5-5.3,2.7-10.6,4.7-15.8
		C860.6,1150.8,860.6,1150.8,860.7,1150.7z M857,1187.7c0-0.1,0.1-0.2,0.1-0.2c22.5-37,46.7-61.4,22.5,4.6c0.6-1.5,1.2-3,1.7-4.4
		c-0.3,0-0.4-0.1-0.5-0.4c9.3-30.4-16.5-11.6-26.3,6C855,1191.3,856.2,1189.6,857,1187.7z M842.5,1224.6
		c-17.2,23.6-45.2-78-17.8-42.4c0,0,0.1,0.1,0.1,0.1c6.7,7,12.3,15,17.8,23.3C846.5,1211.3,846.6,1219,842.5,1224.6z M838.2,1185.3
		c0,0,0.1,0.1,0.1,0.1c1.5,2.1,2.7,4.3,3.2,6.9c-70.9-90.3-9.4,111.6,12,16.1c0-0.1,0-0.2,0.1-0.2c3.4-9,9.5-21.1,19.3-28.6
		c1.5-1.2,3.6,0.3,2.9,2.1c-11,29.5-38.6,88.1-64.4,41.9c-0.1-0.1-0.2-0.3-0.3-0.4C768.2,1180.1,792,1102.7,838.2,1185.3z
		 M774.6,1126.6c2.1-1.5,3.6-4.3,5.6-5.9c1.8-1.4,3.8-2.6,5.9-3.5c3.9-1.5,8.2-1.6,12.2-0.6c4.4,1.1,8.4,3.4,12,6.1
		c3.3,2.5,9.2,6.5,8.6,11.2c0,0.3-0.1,0.7-0.4,0.9c-0.2,0.2-0.6,0.3-0.9,0.3c-2.1,0-3.1-1.8-4.5-3c-1.5-1.3-3.2-2.5-4.8-3.6
		c-3.3-2.1-6.8-3.8-10.6-4.8c-3.7-1-7.6-1.3-11.5-0.8c-1.2,0.1-11.9,3.7-11.7,4C775,1127,773.7,1127.2,774.6,1126.6z M770.5,1147.8
		c2.8-30.4,34.5-21.1,49.2-1.6c1.3,1.7-0.9,3.9-2.7,2.6c-35.3-26.3-48.2,35.2-8.8,82.1c1.6,1.9-1.1,4.3-2.8,2.6
		c-21.6-22.3-40.9-62.1-34.9-85.5C770.5,1147.9,770.5,1147.8,770.5,1147.8z"/>
	<path class="st2" d="M1408.5,755.9c-2.2-25-28.1-30.6-42.2-8.5c-24.5-36.7-57.8-8.6-41.2,29.8C1381.5,871.8,1415,788,1408.5,755.9z
		 M1397.7,757.7c-0.9,0.6-1,1.9-3.5,3.8c1.2-2,2.2-4,3.7-5.9C1398.5,756.5,1398.3,757.1,1397.7,757.7z M1383.8,741c0,0,0.2,0,0,0.2
		c0,0,0,0-0.1,0C1383.8,741.1,1383.8,741.1,1383.8,741z M1378.4,749.8c1.4-1.9,2.8-5.1,5.3-8.5c-2.2,8.6-9,16-13.9,24.9
		c-0.3,0.1-0.3-0.1-0.3-0.3C1372,760.4,1374.9,754.9,1378.4,749.8z M1363.5,760.9c0.2,3-3.8,6.2-6.7,10.6
		C1359.1,768,1361.3,764.4,1363.5,760.9z M1359.9,754.2c1.2,3.5-4.6,7.9-7.7,12.3C1354.3,762,1357.1,758.1,1359.9,754.2z
		 M1356.8,772C1356.7,772,1356.7,772,1356.8,772c0,0-0.2,0,0-0.2C1356.7,771.9,1356.7,771.9,1356.8,772z M1354.3,747.5
		c5.5,2.9-6.7,11.2-8.2,16.6c0-0.1-0.1-0.2-0.2-0.1C1348.7,758.5,1351.7,753.1,1354.3,747.5z M1351.1,775.9c0,0,0.1,0,0.1,0.1
		c0,0-0.1,0.1-0.1,0.1c0,0,0.1-0.1,0.1-0.1C1351.1,776,1351.1,776,1351.1,775.9z M1351,776.3C1351,776.4,1350.9,776.4,1351,776.3
		L1351,776.3C1350.9,776.4,1350.9,776.4,1351,776.3z M1350.4,777.4L1350.4,777.4C1350.4,777.4,1350.4,777.4,1350.4,777.4
		C1350.4,777.4,1350.4,777.4,1350.4,777.4z M1349.5,779.3L1349.5,779.3C1349.5,779.2,1349.4,779.2,1349.5,779.3
		C1349.4,779.2,1349.5,779.2,1349.5,779.3z M1349.3,779.6C1349.3,779.6,1349.2,779.6,1349.3,779.6c-0.1,0-0.1,0.1-0.1,0.1
		C1349.2,779.7,1349.2,779.6,1349.3,779.6C1349.2,779.6,1349.3,779.6,1349.3,779.6z M1349.1,780.1C1349,780,1349,780.1,1349.1,780.1
		c-0.1,0-0.1,0.1-0.1,0.1C1348.9,780.1,1349,780.1,1349.1,780.1C1349,780.1,1349,780,1349.1,780.1z M1349,745
		c7.4-2.4-11.3,22.1-14.3,23.6C1338.6,761.6,1345.1,754,1349,745z M1328.2,751.9c1.3-5.3,2.7-15.8,12.4-12
		c-4.2,4.9-8.6,9.5-11.9,15.2C1328.2,754,1328,752.9,1328.2,751.9z M1330.4,760.4c-0.3-5.4,6.2-11.1,10.4-17.1
		C1353.6,734.3,1334.3,756.9,1330.4,760.4z M1331.1,763.9c2.3-5.9,8.2-9.4,13.8-15.8c-2.9,7.6-8.8,13.3-12.4,20.7
		C1332,767,1331.6,765.4,1331.1,763.9z M1334,773.8c1.9-3.5,6.7-7.5,10.4-12.4c-2.2,5.6-5.5,10.6-9.2,15.4
		C1334.6,775.8,1334.4,774.8,1334,773.8z M1340.2,785.4c-6.2-5,4.7-11.6,7.9-17.7C1345.9,774,1343.2,779.7,1340.2,785.4z
		 M1344.5,790c-1.8-1.8,1.6-4.3,3.2-7.6c0.2,0,0.3,0.1,0.3,0.3c-1,2.6-1.8,5.2-3,7.7C1344.8,790.3,1344.7,790.1,1344.5,790z
		 M1350.8,795.9c-7.6-5.5,11.4-23.9,14.7-30.2c0.1,0.1,0.2,0.1,0.3,0.2C1361.7,776.3,1356,785.9,1350.8,795.9z M1365.1,775
		c0,0,0,0.1,0,0.1C1365.1,775.1,1365.1,775,1365.1,775L1365.1,775z M1364.5,776.6C1364.4,776.5,1364.4,776.6,1364.5,776.6
		c-0.1,0-0.1,0.1-0.1,0.1C1364.3,776.6,1364.4,776.6,1364.5,776.6C1364.4,776.6,1364.4,776.5,1364.5,776.6z M1364.2,777
		C1364.2,777,1364.2,777,1364.2,777C1364.2,777,1364.2,777,1364.2,777L1364.2,777z M1364.1,777.5L1364.1,777.5
		C1364.1,777.5,1364,777.5,1364.1,777.5C1364,777.5,1364,777.5,1364.1,777.5z M1357.8,800.9c-5.8-2.4,0.6-5.5,5.2-13.4
		C1361.9,792.2,1359.6,796.4,1357.8,800.9z M1364.9,802.8c-0.3,0.8-0.5,1.7-0.8,2.7c-6.9-1,14.3-32,15.8-35.4
		C1376,780,1368.5,790.7,1364.9,802.8z M1380.9,796.1c-0.2,3.9-7.9,10.3-5.3,15.4c-0.9,2.6-10.9-1.8-6.8-5.9
		c0,10.9,9.1-6.1,12.2-10.1C1381.3,795.7,1381,795.9,1380.9,796.1z M1372.3,774.4c-0.2,0.2-0.2,0.6-0.7,0.5
		c4.6-9.4,13.4-25.6,18.4-32C1385.2,752.5,1378.4,764.5,1372.3,774.4z M1390,758.5c-0.2,0.1-0.3,0-0.4-0.3c1.7-3.5,2.9-7.2,4.7-10.7
		C1397.3,751.3,1392,753.3,1390,758.5z M1396.4,773.5c-1.1,1-1.1,1.7-4,5.2c2-3.8,3.9-7.3,6-10.9
		C1398.5,770.3,1398,771.7,1396.4,773.5z"/>
	<g>
		<path class="st2" d="M771.1,711.5c-21.1-5-37.6,35.6-41.6,50.6c-0.1,0-0.2,0-0.3-0.1c4.8-65.9-27.1-61.9-28.9-28.5
			c-0.4,16.1,15.2,92.8,28.7,76.3C743.4,785.3,796.2,723.4,771.1,711.5z M722.2,790.3c-0.7,2.2-0.1,4.5-0.1,7
			C690.6,708.7,727.1,679.4,722.2,790.3z M769.4,730.1c-11.1,18.5-21.1,41-37.3,58.2C735.1,746,772.9,695.7,769.4,730.1z"/>
		<path class="st2" d="M683.1,803.2c45.4,55.6,4.1-111.7-3.9-25.7C654,747.9,639.2,770.9,683.1,803.2z M685.4,795.5
			c11.6,1.3-3.4-20.3,3.2-32.6c5.2,12.1,7.1,28,6.5,43.2c-3.3-3.9-7-7-10.5-10.4C685,795.3,685.2,795.5,685.4,795.5z M675.7,787.3
			c-1.2-1-2.4-1.9-3.7-2.9c-0.1-0.3-0.2-0.4-0.5-0.4c-2.6-3.2-9.9-6.5-9.8-13c6.9,5.6,14.1,11,19.1,20.2c-0.2,0.1-0.3,0.3-0.5,0.4
			c-0.9-0.9-1.9-1.8-2.8-2.7c0-0.3-0.2-0.4-0.5-0.4c-0.3-0.2-0.6-0.5-0.9-0.7C676.1,787.4,676,787.3,675.7,787.3z"/>
	</g>
	<g>
		<path class="st2" d="M1082,1188.3c0.1,0.1,0.2,0.3,0.2,0.4c10.7,38,52.1,58.7,78,84.4c5.2,4.9,3.3-9.4,10.4-23.5
			c0.1-0.1,0.1-0.2,0.2-0.3c8.8-11,12.3-17.4,16.7-33.4c0-0.1,0-0.1,0.1-0.2c62.9-138.5-48.5-146.8-60.2-78.6
			c-0.2,1.2-1.6,1.7-2.5,0.9C1091,1109.9,1055,1150.6,1082,1188.3z M1195.3,1118.3c0,0.1,0.1,0.1,0.1,0.2c3,9.8,6.1,22.3,3,36
			c1.1-14.2-2.1-27.7-7.2-40.9C1193.3,1114.5,1194.3,1116.3,1195.3,1118.3z M1172.3,1228.5c1.8-3.6,2.8-7.5,5.1-11.5
			C1176.5,1221.6,1175,1225.3,1172.3,1228.5z M1170.6,1127c2.9-7.7,9.3-6.9,6.5,5.3c-0.3,1.2-1.8,1.6-2.7,0.7
			c-1.2-1.4-2.8-3-3.8-4.7C1170.5,1127.9,1170.5,1127.4,1170.6,1127z M1140.7,1235.5c2.3,1,3.8,2.5,4.9,4.4
			C1143.7,1238.9,1142.1,1237.6,1140.7,1235.5z M1139.8,1136c0-0.6,0.1-1.2,0.2-1.8c0.4-2,3.2-1.5,3,0.5c-0.1,1-0.2,2-0.3,3
			c-0.2,1.9-3.1,1.8-3-0.1C1139.8,1137.1,1139.8,1136.6,1139.8,1136z M1140.4,1180.3c0.1-0.3,0.2-0.5,0.2-0.8
			c0.2-1.3,1.9-1.7,2.7-0.6c1.8,2.3,3.4,5.7,2,13.8c-0.2,1.5-2.2,1.8-2.9,0.4c-1.2-2.4-2.5-6-2.2-12.3
			C1140.3,1180.6,1140.3,1180.5,1140.4,1180.3z M1138.5,1205.2c0.2,0.6,0.5,1.2,0.7,1.8c0.6,1.5-1.2,2.8-2.4,1.8
			c-0.7-0.7-1.1-1.5-1.3-2.8C1135.3,1204.2,1137.9,1203.5,1138.5,1205.2z M1129.4,1159.5c1.4,2.3,3.3,3.9,5,5.7
			C1132.4,1166.5,1129.7,1164.9,1129.4,1159.5z M1127.4,1180.9c0.6,5.4,0.7,12.2-3.5,14.5c-0.6,0.3-1.2,0.2-1.7-0.1
			c-4.4-3.4-0.5-8.7,2.3-14.8C1125.1,1179,1127.2,1179.3,1127.4,1180.9z M1120.3,1151.8c0.1-0.5,0.3-0.9,0.6-1.7
			c0,0.7,0.2,0.5,0.2,2.9C1120.4,1152.8,1120.2,1153.2,1120.3,1151.8z M1118.4,1161.1c3.5,2.8,0.9,7.3-0.8,14.1
			C1117.3,1170.2,1118.1,1165.8,1118.4,1161.1z M1111.1,1142.8c1.2,0.2,4.8,0.8,1.7,4.7c-0.6-1.6-1.2-3.2-2.2-4.6
			C1111,1142.8,1111,1142.8,1111.1,1142.8z M1109.7,1187c0.2,3.1-0.5,6-4.7,5.4c-1.4-0.2-1.8-2-0.7-2.7c1-0.7,1.7-1.6,2.5-3.3
			C1107.6,1185,1109.7,1185.4,1109.7,1187z"/>
		<path class="st2" d="M1203.5,1200c-18.9,27.4-33.6,106.4,32.4,34.5c0,0,0.1-0.1,0.1-0.1c26.9-22.3-0.3-44.3-17.9-18.9
			c-0.1-0.1-0.3-0.1-0.4-0.2c0.5-4.9-3.1-25.1-13.9-15.6C1203.7,1199.8,1203.6,1199.9,1203.5,1200z M1195.8,1256.4
			c-0.6-2,1.4-5.1,6.7-4.7C1200.4,1253.4,1198.3,1255.2,1195.8,1256.4z M1198.5,1231.3c1.5-4.9,2.2-10,4.5-14.7
			C1201.3,1221.5,1201.3,1226.8,1198.5,1231.3z M1206.1,1211c0.2-1.7,2.6-1.7,3-0.1c0.8,3.6,0.1,6-2.3,10.2
			C1209.1,1217.7,1205.7,1214.5,1206.1,1211z"/>
	</g>
	<g>
		<path class="st2" d="M764.2,956.6c30.3,28.7,64.9,73.4,99.2,93.9c0.4,0.3,0.8,0.6,1,1.1c1.1,3.1,8.8,12.4,7,4.2
			c-0.1-0.5,0-0.9,0.1-1.4c5.1-14.5-53.3-60-80-93.5c-0.1-0.2-0.3-0.3-0.5-0.5c-37.2-24.9-8.1-74.8,24.4-41.9
			c0.1,0.1,0.2,0.3,0.3,0.4c34,52.8,23.8,45.4,33.4-8.3c0-0.1,0-0.2,0.1-0.3c15.8-50.9,34.9-22.4,39.4,15c0,0.1,0,0.2,0,0.3
			c0.6,63.7-12,82.1-7.1,111.1c9.7,24.7,24.6-106.9,23.6-123.5c0-0.1,0-0.3-0.1-0.4c-14.9-67.7-62.5-62.4-76.1-0.5
			c-0.4,2-2.9,2.5-4.2,0.9c-45.2-57.8-117.1-25.5-60.7,43C764.1,956.4,764.1,956.5,764.2,956.6z"/>
		<path class="st2" d="M899,1009.7c-10.2,53.8,22.1-16.8,18.9-36.9c-0.3-2-2.8-2.7-4.1-1.2c-5.8,6.5-9.9,28.6-14.5,37.4
			C899.1,1009.3,899.1,1009.5,899,1009.7z"/>
		<path class="st2" d="M843.5,1041c-11.3-4.3-18.2-24-33.7-25.9c-0.3,0-0.6,0-0.9,0c-19.3,4.4,39.3,45.3,36.1,27.7
			C844.8,1042,844.3,1041.3,843.5,1041z"/>
	</g>
	<g>
		<path class="st2" d="M623.1,1109.8c-1.6,0.1-2.7-1.3-3.5-3.3c-3-7.2-11-11-18.2-8.2c-0.1,0-0.1,0-0.2,0.1
			c-7.8,3.1-15.6,10.5-21.2,16.7c-6.2,6.9-10.4,15.3-14.5,23.5c-0.8,1.5-6.6,15.4-7.5,15.3c-0.3,0-0.6-0.4-0.7-0.7
			c-0.5-1.1-0.9-2.2-1.3-3.3c-5-14.4-14.8-22.1-27.5-29.4c-9.4-5.4-20.2-9.8-31.2-9.7c-2.3,0-4.8,0.3-6.8,1.5
			c-2,1.2-3.4,3.2-4.7,5.1c-3.2,4.7-6.5,9.6-8.2,15.1c-1.5,5,0.6,9.7-0.7,14.5c-1.3,5.2-0.1,10.1,1.5,15c1.3,3.9,2.6,7.7,3.5,11.7
			c0.1,0.5,0.3,1.4,0.1,1.6c-1.5,1.1-0.4,2.2-0.3,3.4c0.3,3.6,2.4,7.1,1.3,10.9c-0.3,0.9,0.1,1.9,0.6,2.8c1.2,2.2,2.2,4.4,3.5,6.6
			c2.2,3.9,4.4,7.7,6.3,11.8c3.9,8.1,7.9,16,13.3,23.2c6.3,8.6,14.1,15.5,24.1,19.6c0.8,0.3,1.5,0.8,1.9,1.6c0.9,1.6,2.2,3,3.1,4.6
			c1.8,3.4,4.9,5,8.9,4.2c1.2-0.2,1.8,0.1,2.3,1.1c1.2,2.4,3.2,4.8,5.5,4.9c2.9,0.1,4.7,2.4,7.6,2.4c3,0,3.7,0.3,5.3-2.4
			c0.4-0.7,0.7-1.6,1.5-1.9c1.2-0.5,2.5-0.6,1.1-2.4c-0.3-0.4,0.2-1,0.5-1.5c0.6-0.9,1.2-1.9,1.8-2.8c0.7-1.1,0.7-1.1,2.1-0.7
			c0.4,0.1,0.6-0.2,0.8-0.5c0.5-0.7,1-1.4,1.4-2c1.1-1.7,2.4-2.8,4.7-2.8c2.4,0,4.3-1.5,5.7-3.4c2.5-3.3,4.5-7,6-10.9
			c1.3-3.5,3.7-6.4,5.4-9.6c2.9-5.3,5.1-10.9,7.2-16.5c4.5-11.9,9.9-23.3,13.3-35.6c1.3-4.4,2.5-8.9,3.5-13.4
			c1-4.3,1.3-8.8,2.2-13.1c0.8-3.9,1.7-7.7,1.7-11.7c0-3.3,0.1-6.7,0.7-9.9c1.1-5.9,1.6-11.7,1.7-17.7
			C626.7,1110,626.3,1109.5,623.1,1109.8z M478.3,1145.9c0-3.5,0.2-6.9,1.9-10C481.1,1139.4,478.5,1142.5,478.3,1145.9z
			 M487.8,1127.2c-1.3,1.9-1.6,4.2-2.6,6.3c-0.3,0.7-0.7,1.4-1.5,1.2c-0.8-0.2-0.2-1.1-0.5-1.6c0.6-2.5,1.1-4.9,2.5-7.1
			c0.4-0.6,0.9-1.5,1.8-1C488.3,1125.4,488.2,1126.5,487.8,1127.2z M519,1230.8l0.1-0.1l0,0.1L519,1230.8z M519.6,1231.4
			c2.4,1.8,5.9,2,7.2,5.3c0.9,2.3,2.7,4,3.9,6.2C526.9,1239.2,521.7,1236.7,519.6,1231.4z M551.7,1211.2c0.2-1,0.2-2.1,0.6-3.2
			c1-2.9,2.1-5.7,1.6-8.8c-0.3-1.8-2.1-4.3-1.1-6.3c1.5-2.8,3.7-0.5,4.5,1.6c1.5,4.3-0.7,10.9-2,15.1c-0.4,1.1-1.3,1.8-2.1,2.4
			C552.4,1212.7,551.5,1212.3,551.7,1211.2z M558.3,1254.3c-0.6,1.7-1.8,3-3.1,4.1c-0.9,0.7-1.7-0.1-2.4-0.7
			c-1.6-1.5-0.6-6.2,1.4-7.1c0.1-0.1,0.3-0.1,0.4-0.2c0.5-0.1,0.6,0.3,0.6,0.6c0,1.4,0.7,1.8,2,1.7
			C558.3,1252.6,558.7,1253.1,558.3,1254.3z M573.7,1160.6c2.2-5.5,5.4-10.5,8.6-15.4C579.5,1150.3,578.9,1156.7,573.7,1160.6z
			 M581.7,1136.1c-4.1,6.3-8.3,12.7-11.6,19.5c-0.1,0.3-0.4,0.6-0.6,0.9c-0.5,0.6-0.7,1.6-1.9,1c-1.1-0.6-1.5-1.4-0.9-2.6
			c2.3-4.9,4.9-9.6,8.6-13.7c2.6-2.9,5.1-5.9,7.7-8.8c0.3-0.3,0.7-0.6,1-0.9c0.1,0.1,0.3,0.2,0.4,0.3
			C583.6,1133.3,582.7,1134.7,581.7,1136.1z M595.3,1117.3C595.3,1117.3,595.3,1117.3,595.3,1117.3c0,0,0,0.1,0,0.1
			C595.2,1117.4,595.2,1117.3,595.3,1117.3z M593.8,1216.9c-1,2.7-2.4,5.3-3.3,8.1c-0.8,2.5-2.5,4.3-3.6,6.5
			c-0.2,0.4-0.6,0.8-1.2,0.5c-0.4-0.2-0.1-0.6,0-0.9c3.6-7.7,7.2-15.3,10.8-23c0.1,0,0.2,0.1,0.3,0.1
			C595.9,1211.1,594.9,1214,593.8,1216.9z M623.9,1127.9c-0.9-2.3-1.6-4.6-1.4-7.1c0.1-1.5,0.1-3-0.3-4.5c-0.2-0.9,0.2-1.5,1.1-1.6
			c0.8-0.1,1.3,0.2,1.4,1.1C624.9,1119.8,624.2,1123.8,623.9,1127.9z"/>
		<path class="st2" d="M530.9,1117.9c0.1,0.1,0.4,0,0.8,0c-0.5-1.1-0.8-2.1-1.3-3.1c-0.2-0.4-0.6-0.8-0.8-1.2
			c-1.2-2.7-5.2-3.1-7.7-2.6c-1.1,0.2-1.7,0.7-1.7,2c0,1.2,1,1.3,1.7,1.4C525.2,1114.8,528.2,1116,530.9,1117.9z"/>
		<path class="st2" d="M571.1,1262.1c-0.1,0-0.2,0.2-0.1,0.3c0,0.1,0.2,0.1,0.3,0.2c0-0.1,0.1-0.2,0.1-0.3
			C571.3,1262.2,571.2,1262.1,571.1,1262.1z"/>
	</g>
	<g>
		<path class="st2" d="M1557.2,1137.5c0.3-2.3,0.6-4.6,0.9-6.9c0.2-2.1-2.1-3.6-3.9-2.5c-39.2,24.5-81.3,53-112.2,87.2
			c-0.8,0.9-0.8,2.2-0.2,3.2c3.2,5,7,19.5,12.1,12.1c0.1-0.1,0.2-0.3,0.3-0.4c33-32.6,68-60.7,102.2-91.1
			C1556.9,1138.7,1557.2,1138.2,1557.2,1137.5z"/>
		<path class="st2" d="M1429.3,1195.4c2.3,3.6,4.3,7.4,6.2,11.3c0.8,1.6,3,1.9,4.2,0.6c28-30.9,62.6-60.8,93.2-88
			c2.3-2.1-0.3-5.7-3-4.1c-41.2,24.1-114.7,70.9-101.4,79.4C1428.7,1194.8,1429,1195,1429.3,1195.4z"/>
		<path class="st2" d="M1430.2,1178.8c34.9-29.6,76.7-53.8,114.7-77.3c1.4-0.9,1.6-2.9,0.4-4.1c-17.4-16-48.8,12.8-59.9,31.4
			c-0.9,1.6-3.1,1.6-4.3,0.2c-3.6-4.1-12.5,9.3-18.4,13.1c-0.1,0.1-0.3,0.2-0.4,0.3c-12.3,12.8-28.9,24.3-35.8,32.8
			C1424.6,1177.7,1427.8,1180.8,1430.2,1178.8z"/>
		<path class="st2" d="M1422.5,1175.8c16.4-17.8,41.3-34,55.4-52.6c0.6-0.7,0.7-1.7,0.3-2.6c-1-2.2-2-6.2-3.5-8.5
			c-0.7-1.2-2.3-1.5-3.5-0.8c-11.1,6.7-22.4,14.9-33.1,22.7c-30.7,19.9-22.4,16-16.5,42.4C1422.1,1176.1,1422.3,1176,1422.5,1175.8z
			"/>
		<path class="st2" d="M1532.9,1191.5c0.5-1.1,1.2-2.3,2-3.7c1.3-2.4-1.5-4.9-3.7-3.4c-25.8,17.6-90.4,61.5-64.5,64.9
			c0.8,0.1,1.6-0.1,2.2-0.7c20.2-20.3,45.1-35.5,63.7-56.6C1532.7,1191.9,1532.8,1191.7,1532.9,1191.5z"/>
		<path class="st2" d="M1548.4,1161.3c1.4-2,2.4-4.2,3.3-6.4c-2.4-1.7-2.1-1.5-4.5-3.2c-22.7,19.4-61.5,51.5-81.2,71
			c-2.4,2.3,1,5.9,3.5,3.7c13.2-11.8,28.1-24.3,42.9-35c0.1,0,0.1-0.1,0.2-0.1c12.4-11.2,28.1-13.4,35.6-29.7
			C1548.3,1161.5,1548.3,1161.4,1548.4,1161.3z"/>
		<path class="st2" d="M1413.9,1138.4c0.2,1,0.3,2,0.4,3c0.2,2,2.5,3,4.1,1.7c15.7-12.2,39.5-24.6,51.4-36.7c0.9-0.9,1-2.4,0.2-3.3
			c-3.4-4.3-6.1-13.3-11.5-7.3c-14.7,13.9-30.2,25.1-44,40.3C1413.9,1136.8,1413.7,1137.6,1413.9,1138.4z"/>
		<path class="st2" d="M1558.4,1116.9c-1.5-5.8-2.1-13.4-10.9-5c-0.1,0.1-0.1,0.1-0.2,0.1c-37.2,29-68.3,58.7-101.1,92.4
			c31.7-32.9,74.1-58.4,111.2-84.9C1558.3,1119,1558.7,1118,1558.4,1116.9z"/>
		<path class="st2" d="M1414.8,1111c-1.2,4.7-2,10.3-1.9,16.4c0,2.2,2.6,3.3,4.2,1.9c59.7-50.5,50.1-55.7-1.3-19.8
			C1415.3,1109.9,1414.9,1110.4,1414.8,1111z"/>
		<path class="st2" d="M1474.5,1254.3c14.1,2.3,36.2-23.3,46.1-40.2c1.4-2.4-1.6-5.1-3.8-3.3c-15.5,12.2-30.2,25.1-44.7,38.3
			c-1.2,1.1-1.1,2.9,0.2,3.9c0.4,0.3,0.7,0.6,1.1,0.8C1473.7,1254.1,1474.1,1254.2,1474.5,1254.3z"/>
		<path class="st2" d="M1434.8,1081.6c-6.2,2-9.5,6.9-12.4,12.3c-1.2,2.3,1.3,4.8,3.6,3.4c6.5-3.9,12.9-7.8,19.5-11.6
			c2-1.2,1.6-4.2-0.7-4.7C1441.6,1080.3,1438.4,1080.2,1434.8,1081.6z"/>
		<path class="st2" d="M1446,1204.8c0,0,0-0.1,0-0.1l0,0c0.1-0.1,0.1-0.1,0.2-0.2c-0.1,0.1-0.1,0.1-0.2,0.2
			C1446,1204.8,1446,1204.8,1446,1204.8z"/>
	</g>
</g>
</svg>
